<mxfile host="app.diagrams.net" modified="2023-05-02T17:07:36.849Z" agent="Mozilla/5.0 (Windows NT 10.0; Win64; x64) AppleWebKit/537.36 (KHTML, like Gecko) Chrome/112.0.0.0 Safari/537.36" etag="-f3dYr8EMz_dGuy9KVWP" version="21.2.1" type="device">
  <diagram id="R2lEEEUBdFMjLlhIrx00" name="Page-1">
    <mxGraphModel dx="2163" dy="676" grid="1" gridSize="10" guides="1" tooltips="1" connect="1" arrows="1" fold="1" page="1" pageScale="1" pageWidth="850" pageHeight="1100" math="0" shadow="0" extFonts="Permanent Marker^https://fonts.googleapis.com/css?family=Permanent+Marker">
      <root>
        <mxCell id="0" />
        <mxCell id="1" parent="0" />
        <mxCell id="vN5kve3PeMKoZxvb_3zb-1" value="RonHadad: Employee" style="swimlane;fontStyle=1;align=center;verticalAlign=middle;childLayout=stackLayout;horizontal=1;startSize=29;horizontalStack=0;resizeParent=1;resizeParentMax=0;resizeLast=0;collapsible=0;marginBottom=0;html=1;whiteSpace=wrap;" parent="1" vertex="1">
          <mxGeometry x="10" y="10" width="300" height="329" as="geometry" />
        </mxCell>
        <mxCell id="vN5kve3PeMKoZxvb_3zb-2" value="- name = &quot;Ron Hadad&quot;" style="text;html=1;strokeColor=none;fillColor=none;align=left;verticalAlign=middle;spacingLeft=4;spacingRight=4;overflow=hidden;rotatable=0;points=[[0,0.5],[1,0.5]];portConstraint=eastwest;whiteSpace=wrap;" parent="vN5kve3PeMKoZxvb_3zb-1" vertex="1">
          <mxGeometry y="29" width="300" height="25" as="geometry" />
        </mxCell>
        <mxCell id="vN5kve3PeMKoZxvb_3zb-4" value="- id = 123456789&amp;nbsp;" style="text;html=1;strokeColor=none;fillColor=none;align=left;verticalAlign=middle;spacingLeft=4;spacingRight=4;overflow=hidden;rotatable=0;points=[[0,0.5],[1,0.5]];portConstraint=eastwest;whiteSpace=wrap;" parent="vN5kve3PeMKoZxvb_3zb-1" vertex="1">
          <mxGeometry y="54" width="300" height="25" as="geometry" />
        </mxCell>
        <mxCell id="vN5kve3PeMKoZxvb_3zb-7" value="- bank_account = 818183" style="text;html=1;strokeColor=none;fillColor=none;align=left;verticalAlign=middle;spacingLeft=4;spacingRight=4;overflow=hidden;rotatable=0;points=[[0,0.5],[1,0.5]];portConstraint=eastwest;whiteSpace=wrap;" parent="vN5kve3PeMKoZxvb_3zb-1" vertex="1">
          <mxGeometry y="79" width="300" height="25" as="geometry" />
        </mxCell>
        <mxCell id="vN5kve3PeMKoZxvb_3zb-10" value="- salary = 30" style="text;html=1;strokeColor=none;fillColor=none;align=left;verticalAlign=middle;spacingLeft=4;spacingRight=4;overflow=hidden;rotatable=0;points=[[0,0.5],[1,0.5]];portConstraint=eastwest;whiteSpace=wrap;" parent="vN5kve3PeMKoZxvb_3zb-1" vertex="1">
          <mxGeometry y="104" width="300" height="25" as="geometry" />
        </mxCell>
        <mxCell id="vN5kve3PeMKoZxvb_3zb-9" value="- family_status = SINGLE" style="text;html=1;strokeColor=none;fillColor=none;align=left;verticalAlign=middle;spacingLeft=4;spacingRight=4;overflow=hidden;rotatable=0;points=[[0,0.5],[1,0.5]];portConstraint=eastwest;whiteSpace=wrap;" parent="vN5kve3PeMKoZxvb_3zb-1" vertex="1">
          <mxGeometry y="129" width="300" height="25" as="geometry" />
        </mxCell>
        <mxCell id="vN5kve3PeMKoZxvb_3zb-8" value="- is_student = true" style="text;html=1;strokeColor=none;fillColor=none;align=left;verticalAlign=middle;spacingLeft=4;spacingRight=4;overflow=hidden;rotatable=0;points=[[0,0.5],[1,0.5]];portConstraint=eastwest;whiteSpace=wrap;" parent="vN5kve3PeMKoZxvb_3zb-1" vertex="1">
          <mxGeometry y="154" width="300" height="25" as="geometry" />
        </mxCell>
        <mxCell id="vN5kve3PeMKoZxvb_3zb-6" value="- terms_of_employment = &quot;none&quot;&amp;nbsp;" style="text;html=1;strokeColor=none;fillColor=none;align=left;verticalAlign=middle;spacingLeft=4;spacingRight=4;overflow=hidden;rotatable=0;points=[[0,0.5],[1,0.5]];portConstraint=eastwest;whiteSpace=wrap;" parent="vN5kve3PeMKoZxvb_3zb-1" vertex="1">
          <mxGeometry y="179" width="300" height="25" as="geometry" />
        </mxCell>
        <mxCell id="vN5kve3PeMKoZxvb_3zb-5" value="- employment_start_date = 27-03-2023&amp;nbsp;" style="text;html=1;strokeColor=none;fillColor=none;align=left;verticalAlign=middle;spacingLeft=4;spacingRight=4;overflow=hidden;rotatable=0;points=[[0,0.5],[1,0.5]];portConstraint=eastwest;whiteSpace=wrap;" parent="vN5kve3PeMKoZxvb_3zb-1" vertex="1">
          <mxGeometry y="204" width="300" height="25" as="geometry" />
        </mxCell>
        <mxCell id="vN5kve3PeMKoZxvb_3zb-12" value="- certified_stores = {[&quot;Be&#39;er Sheva&quot;, Be&#39;er Sheva]}" style="text;html=1;strokeColor=none;fillColor=none;align=left;verticalAlign=middle;spacingLeft=4;spacingRight=4;overflow=hidden;rotatable=0;points=[[0,0.5],[1,0.5]];portConstraint=eastwest;whiteSpace=wrap;" parent="vN5kve3PeMKoZxvb_3zb-1" vertex="1">
          <mxGeometry y="229" width="300" height="25" as="geometry" />
        </mxCell>
        <mxCell id="EKBpt0zWMikfl3YGMHsi-4" value="- roles = (CASHIER, STOREKEEPER)" style="text;html=1;strokeColor=none;fillColor=none;align=left;verticalAlign=middle;spacingLeft=4;spacingRight=4;overflow=hidden;rotatable=0;points=[[0,0.5],[1,0.5]];portConstraint=eastwest;whiteSpace=wrap;" vertex="1" parent="vN5kve3PeMKoZxvb_3zb-1">
          <mxGeometry y="254" width="300" height="25" as="geometry" />
        </mxCell>
        <mxCell id="vN5kve3PeMKoZxvb_3zb-13" value="-&amp;nbsp;current_total_salary = 0" style="text;html=1;strokeColor=none;fillColor=none;align=left;verticalAlign=middle;spacingLeft=4;spacingRight=4;overflow=hidden;rotatable=0;points=[[0,0.5],[1,0.5]];portConstraint=eastwest;whiteSpace=wrap;" parent="vN5kve3PeMKoZxvb_3zb-1" vertex="1">
          <mxGeometry y="279" width="300" height="25" as="geometry" />
        </mxCell>
        <mxCell id="EKBpt0zWMikfl3YGMHsi-3" value="-&amp;nbsp;monthly_salary = 0" style="text;html=1;strokeColor=none;fillColor=none;align=left;verticalAlign=middle;spacingLeft=4;spacingRight=4;overflow=hidden;rotatable=0;points=[[0,0.5],[1,0.5]];portConstraint=eastwest;whiteSpace=wrap;" vertex="1" parent="vN5kve3PeMKoZxvb_3zb-1">
          <mxGeometry y="304" width="300" height="25" as="geometry" />
        </mxCell>
        <mxCell id="vN5kve3PeMKoZxvb_3zb-14" value="GuyCohen: Employee" style="swimlane;fontStyle=1;align=center;verticalAlign=middle;childLayout=stackLayout;horizontal=1;startSize=29;horizontalStack=0;resizeParent=1;resizeParentMax=0;resizeLast=0;collapsible=0;marginBottom=0;html=1;whiteSpace=wrap;" parent="1" vertex="1">
          <mxGeometry x="1010" y="90" width="470" height="329" as="geometry" />
        </mxCell>
        <mxCell id="vN5kve3PeMKoZxvb_3zb-15" value="- name = &quot;Guy Cohen&quot;" style="text;html=1;strokeColor=none;fillColor=none;align=left;verticalAlign=middle;spacingLeft=4;spacingRight=4;overflow=hidden;rotatable=0;points=[[0,0.5],[1,0.5]];portConstraint=eastwest;whiteSpace=wrap;" parent="vN5kve3PeMKoZxvb_3zb-14" vertex="1">
          <mxGeometry y="29" width="470" height="25" as="geometry" />
        </mxCell>
        <mxCell id="vN5kve3PeMKoZxvb_3zb-16" value="- id = 111111111" style="text;html=1;strokeColor=none;fillColor=none;align=left;verticalAlign=middle;spacingLeft=4;spacingRight=4;overflow=hidden;rotatable=0;points=[[0,0.5],[1,0.5]];portConstraint=eastwest;whiteSpace=wrap;" parent="vN5kve3PeMKoZxvb_3zb-14" vertex="1">
          <mxGeometry y="54" width="470" height="25" as="geometry" />
        </mxCell>
        <mxCell id="vN5kve3PeMKoZxvb_3zb-17" value="- bank_account = 1236985" style="text;html=1;strokeColor=none;fillColor=none;align=left;verticalAlign=middle;spacingLeft=4;spacingRight=4;overflow=hidden;rotatable=0;points=[[0,0.5],[1,0.5]];portConstraint=eastwest;whiteSpace=wrap;" parent="vN5kve3PeMKoZxvb_3zb-14" vertex="1">
          <mxGeometry y="79" width="470" height="25" as="geometry" />
        </mxCell>
        <mxCell id="vN5kve3PeMKoZxvb_3zb-18" value="- salary = 60" style="text;html=1;strokeColor=none;fillColor=none;align=left;verticalAlign=middle;spacingLeft=4;spacingRight=4;overflow=hidden;rotatable=0;points=[[0,0.5],[1,0.5]];portConstraint=eastwest;whiteSpace=wrap;" parent="vN5kve3PeMKoZxvb_3zb-14" vertex="1">
          <mxGeometry y="104" width="470" height="25" as="geometry" />
        </mxCell>
        <mxCell id="vN5kve3PeMKoZxvb_3zb-19" value="- family_status = MARRIED" style="text;html=1;strokeColor=none;fillColor=none;align=left;verticalAlign=middle;spacingLeft=4;spacingRight=4;overflow=hidden;rotatable=0;points=[[0,0.5],[1,0.5]];portConstraint=eastwest;whiteSpace=wrap;" parent="vN5kve3PeMKoZxvb_3zb-14" vertex="1">
          <mxGeometry y="129" width="470" height="25" as="geometry" />
        </mxCell>
        <mxCell id="vN5kve3PeMKoZxvb_3zb-20" value="- is_student = false" style="text;html=1;strokeColor=none;fillColor=none;align=left;verticalAlign=middle;spacingLeft=4;spacingRight=4;overflow=hidden;rotatable=0;points=[[0,0.5],[1,0.5]];portConstraint=eastwest;whiteSpace=wrap;" parent="vN5kve3PeMKoZxvb_3zb-14" vertex="1">
          <mxGeometry y="154" width="470" height="25" as="geometry" />
        </mxCell>
        <mxCell id="vN5kve3PeMKoZxvb_3zb-21" value="- terms_of_employment = &quot;none&quot;&amp;nbsp;" style="text;html=1;strokeColor=none;fillColor=none;align=left;verticalAlign=middle;spacingLeft=4;spacingRight=4;overflow=hidden;rotatable=0;points=[[0,0.5],[1,0.5]];portConstraint=eastwest;whiteSpace=wrap;" parent="vN5kve3PeMKoZxvb_3zb-14" vertex="1">
          <mxGeometry y="179" width="470" height="25" as="geometry" />
        </mxCell>
        <mxCell id="vN5kve3PeMKoZxvb_3zb-22" value="- employment_start_date = 01-01-2023&amp;nbsp;" style="text;html=1;strokeColor=none;fillColor=none;align=left;verticalAlign=middle;spacingLeft=4;spacingRight=4;overflow=hidden;rotatable=0;points=[[0,0.5],[1,0.5]];portConstraint=eastwest;whiteSpace=wrap;" parent="vN5kve3PeMKoZxvb_3zb-14" vertex="1">
          <mxGeometry y="204" width="470" height="25" as="geometry" />
        </mxCell>
        <mxCell id="vN5kve3PeMKoZxvb_3zb-23" value="- certified_stores&amp;nbsp;= { [&quot;Be&#39;er Sheva&quot;, Be&#39;er Sheva] }" style="text;html=1;strokeColor=none;fillColor=none;align=left;verticalAlign=middle;spacingLeft=4;spacingRight=4;overflow=hidden;rotatable=0;points=[[0,0.5],[1,0.5]];portConstraint=eastwest;whiteSpace=wrap;" parent="vN5kve3PeMKoZxvb_3zb-14" vertex="1">
          <mxGeometry y="229" width="470" height="25" as="geometry" />
        </mxCell>
        <mxCell id="vN5kve3PeMKoZxvb_3zb-24" value="- roles = (HRMANAGER)" style="text;html=1;strokeColor=none;fillColor=none;align=left;verticalAlign=middle;spacingLeft=4;spacingRight=4;overflow=hidden;rotatable=0;points=[[0,0.5],[1,0.5]];portConstraint=eastwest;whiteSpace=wrap;" parent="vN5kve3PeMKoZxvb_3zb-14" vertex="1">
          <mxGeometry y="254" width="470" height="25" as="geometry" />
        </mxCell>
        <mxCell id="EKBpt0zWMikfl3YGMHsi-5" value="-&amp;nbsp;current_total_salary = 0" style="text;html=1;strokeColor=none;fillColor=none;align=left;verticalAlign=middle;spacingLeft=4;spacingRight=4;overflow=hidden;rotatable=0;points=[[0,0.5],[1,0.5]];portConstraint=eastwest;whiteSpace=wrap;" vertex="1" parent="vN5kve3PeMKoZxvb_3zb-14">
          <mxGeometry y="279" width="470" height="25" as="geometry" />
        </mxCell>
        <mxCell id="EKBpt0zWMikfl3YGMHsi-6" value="-&amp;nbsp;monthly_salary = 0" style="text;html=1;strokeColor=none;fillColor=none;align=left;verticalAlign=middle;spacingLeft=4;spacingRight=4;overflow=hidden;rotatable=0;points=[[0,0.5],[1,0.5]];portConstraint=eastwest;whiteSpace=wrap;" vertex="1" parent="vN5kve3PeMKoZxvb_3zb-14">
          <mxGeometry y="304" width="470" height="25" as="geometry" />
        </mxCell>
        <mxCell id="vN5kve3PeMKoZxvb_3zb-52" value="shiftController: ShiftController" style="swimlane;fontStyle=1;align=center;verticalAlign=middle;childLayout=stackLayout;horizontal=1;startSize=29;horizontalStack=0;resizeParent=1;resizeParentMax=0;resizeLast=0;collapsible=0;marginBottom=0;html=1;whiteSpace=wrap;" parent="1" vertex="1">
          <mxGeometry x="930" y="990" width="330" height="155" as="geometry" />
        </mxCell>
        <mxCell id="vN5kve3PeMKoZxvb_3zb-55" value="- stores_schedules = {&lt;br&gt;[&quot;Be&#39;er Sheva, (Be&#39;erShevaSchedule)]&lt;br&gt;}" style="text;html=1;strokeColor=none;fillColor=none;align=left;verticalAlign=middle;spacingLeft=4;spacingRight=4;overflow=hidden;rotatable=0;points=[[0,0.5],[1,0.5]];portConstraint=eastwest;whiteSpace=wrap;" parent="vN5kve3PeMKoZxvb_3zb-52" vertex="1">
          <mxGeometry y="29" width="330" height="51" as="geometry" />
        </mxCell>
        <mxCell id="vN5kve3PeMKoZxvb_3zb-56" value="- stores = {&quot;Be&#39;er Sheva&quot;}" style="text;html=1;strokeColor=none;fillColor=none;align=left;verticalAlign=middle;spacingLeft=4;spacingRight=4;overflow=hidden;rotatable=0;points=[[0,0.5],[1,0.5]];portConstraint=eastwest;whiteSpace=wrap;" parent="vN5kve3PeMKoZxvb_3zb-52" vertex="1">
          <mxGeometry y="80" width="330" height="25" as="geometry" />
        </mxCell>
        <mxCell id="vN5kve3PeMKoZxvb_3zb-57" value="- schedules_history = []" style="text;html=1;strokeColor=none;fillColor=none;align=left;verticalAlign=middle;spacingLeft=4;spacingRight=4;overflow=hidden;rotatable=0;points=[[0,0.5],[1,0.5]];portConstraint=eastwest;whiteSpace=wrap;" parent="vN5kve3PeMKoZxvb_3zb-52" vertex="1">
          <mxGeometry y="105" width="330" height="25" as="geometry" />
        </mxCell>
        <mxCell id="vN5kve3PeMKoZxvb_3zb-58" value="- shiftDAO = shiftDAO" style="text;html=1;strokeColor=none;fillColor=none;align=left;verticalAlign=middle;spacingLeft=4;spacingRight=4;overflow=hidden;rotatable=0;points=[[0,0.5],[1,0.5]];portConstraint=eastwest;whiteSpace=wrap;" parent="vN5kve3PeMKoZxvb_3zb-52" vertex="1">
          <mxGeometry y="130" width="330" height="25" as="geometry" />
        </mxCell>
        <mxCell id="vN5kve3PeMKoZxvb_3zb-63" value="Be&#39;erShevaSchedule: Schedule" style="swimlane;fontStyle=1;align=center;verticalAlign=middle;childLayout=stackLayout;horizontal=1;startSize=29;horizontalStack=0;resizeParent=1;resizeParentMax=0;resizeLast=0;collapsible=0;marginBottom=0;html=1;whiteSpace=wrap;" parent="1" vertex="1">
          <mxGeometry x="420" y="1230" width="650" height="325" as="geometry" />
        </mxCell>
        <mxCell id="vN5kve3PeMKoZxvb_3zb-68" value="- store = &quot;Be&#39;er Sheva&quot;&amp;nbsp;" style="text;html=1;strokeColor=none;fillColor=none;align=left;verticalAlign=middle;spacingLeft=4;spacingRight=4;overflow=hidden;rotatable=0;points=[[0,0.5],[1,0.5]];portConstraint=eastwest;whiteSpace=wrap;" parent="vN5kve3PeMKoZxvb_3zb-63" vertex="1">
          <mxGeometry y="29" width="650" height="25" as="geometry" />
        </mxCell>
        <mxCell id="vN5kve3PeMKoZxvb_3zb-64" value="- shifts = {&lt;br&gt;[ sun_morning_pair, sun_morning ],&lt;br&gt;[ sun_evening_pair, sun_evening ],&lt;br&gt;[ mon_morning_pair, mon_morning ],&lt;br style=&quot;border-color: var(--border-color);&quot;&gt;[ mon_evening_pair, mon_evening ],&lt;br&gt;[ tue_morning_pair, tue_morning ],&lt;br style=&quot;border-color: var(--border-color);&quot;&gt;[ tue_evening_pair, tue_evening ],&lt;br&gt;[ wed_morning_pair, wed_morning ],&lt;br style=&quot;border-color: var(--border-color);&quot;&gt;[ wed_evening_pair, wed_evening ],&lt;br&gt;[ thu_morning_pair, thu_morning ],&lt;br style=&quot;border-color: var(--border-color);&quot;&gt;[ thu_evening_pair, thu_evening ],&lt;br&gt;[ fri_morning_pair, fri_morning ],&lt;br style=&quot;border-color: var(--border-color);&quot;&gt;[ fri_evening_pair, fri_evening ],&lt;br&gt;[ sat_morning_pair, sat_morning ],&lt;br style=&quot;border-color: var(--border-color);&quot;&gt;[ sat_evening_pair, sat_evening ],&lt;br&gt;}" style="text;html=1;strokeColor=none;fillColor=none;align=left;verticalAlign=middle;spacingLeft=4;spacingRight=4;overflow=hidden;rotatable=0;points=[[0,0.5],[1,0.5]];portConstraint=eastwest;whiteSpace=wrap;" parent="vN5kve3PeMKoZxvb_3zb-63" vertex="1">
          <mxGeometry y="54" width="650" height="246" as="geometry" />
        </mxCell>
        <mxCell id="EKBpt0zWMikfl3YGMHsi-178" value="- shiftDAO = shiftDAO" style="text;html=1;strokeColor=none;fillColor=none;align=left;verticalAlign=middle;spacingLeft=4;spacingRight=4;overflow=hidden;rotatable=0;points=[[0,0.5],[1,0.5]];portConstraint=eastwest;whiteSpace=wrap;" vertex="1" parent="vN5kve3PeMKoZxvb_3zb-63">
          <mxGeometry y="300" width="650" height="25" as="geometry" />
        </mxCell>
        <mxCell id="vN5kve3PeMKoZxvb_3zb-180" style="edgeStyle=orthogonalEdgeStyle;rounded=0;orthogonalLoop=1;jettySize=auto;html=1;exitX=0.75;exitY=0;exitDx=0;exitDy=0;entryX=0;entryY=0.5;entryDx=0;entryDy=0;endArrow=none;endFill=0;startArrow=open;startFill=0;" parent="1" source="vN5kve3PeMKoZxvb_3zb-71" target="vN5kve3PeMKoZxvb_3zb-64" edge="1">
          <mxGeometry relative="1" as="geometry">
            <Array as="points">
              <mxPoint x="-608" y="1390" />
              <mxPoint x="140" y="1390" />
              <mxPoint x="140" y="1360" />
              <mxPoint x="420" y="1360" />
            </Array>
          </mxGeometry>
        </mxCell>
        <mxCell id="vN5kve3PeMKoZxvb_3zb-71" value="sun_morning: Shift" style="swimlane;fontStyle=1;align=center;verticalAlign=middle;childLayout=stackLayout;horizontal=1;startSize=29;horizontalStack=0;resizeParent=1;resizeParentMax=0;resizeLast=0;collapsible=0;marginBottom=0;html=1;whiteSpace=wrap;" parent="1" vertex="1">
          <mxGeometry x="-780" y="1440" width="230" height="229" as="geometry" />
        </mxCell>
        <mxCell id="EKBpt0zWMikfl3YGMHsi-210" value="- store = &quot;Be&#39;er Sheva&quot;&amp;nbsp;" style="text;html=1;strokeColor=none;fillColor=none;align=left;verticalAlign=middle;spacingLeft=4;spacingRight=4;overflow=hidden;rotatable=0;points=[[0,0.5],[1,0.5]];portConstraint=eastwest;whiteSpace=wrap;" vertex="1" parent="vN5kve3PeMKoZxvb_3zb-71">
          <mxGeometry y="29" width="230" height="25" as="geometry" />
        </mxCell>
        <mxCell id="EKBpt0zWMikfl3YGMHsi-211" value="- start = 08:00" style="text;html=1;strokeColor=none;fillColor=none;align=left;verticalAlign=middle;spacingLeft=4;spacingRight=4;overflow=hidden;rotatable=0;points=[[0,0.5],[1,0.5]];portConstraint=eastwest;whiteSpace=wrap;" vertex="1" parent="vN5kve3PeMKoZxvb_3zb-71">
          <mxGeometry y="54" width="230" height="25" as="geometry" />
        </mxCell>
        <mxCell id="EKBpt0zWMikfl3YGMHsi-212" value="- end = 14:00&amp;nbsp;" style="text;html=1;strokeColor=none;fillColor=none;align=left;verticalAlign=middle;spacingLeft=4;spacingRight=4;overflow=hidden;rotatable=0;points=[[0,0.5],[1,0.5]];portConstraint=eastwest;whiteSpace=wrap;" vertex="1" parent="vN5kve3PeMKoZxvb_3zb-71">
          <mxGeometry y="79" width="230" height="25" as="geometry" />
        </mxCell>
        <mxCell id="EKBpt0zWMikfl3YGMHsi-217" value="- employees = {}" style="text;html=1;strokeColor=none;fillColor=none;align=left;verticalAlign=middle;spacingLeft=4;spacingRight=4;overflow=hidden;rotatable=0;points=[[0,0.5],[1,0.5]];portConstraint=eastwest;whiteSpace=wrap;" vertex="1" parent="vN5kve3PeMKoZxvb_3zb-71">
          <mxGeometry y="104" width="230" height="25" as="geometry" />
        </mxCell>
        <mxCell id="EKBpt0zWMikfl3YGMHsi-216" value="- available_employees = (111111111)" style="text;html=1;strokeColor=none;fillColor=none;align=left;verticalAlign=middle;spacingLeft=4;spacingRight=4;overflow=hidden;rotatable=0;points=[[0,0.5],[1,0.5]];portConstraint=eastwest;whiteSpace=wrap;" vertex="1" parent="vN5kve3PeMKoZxvb_3zb-71">
          <mxGeometry y="129" width="230" height="25" as="geometry" />
        </mxCell>
        <mxCell id="EKBpt0zWMikfl3YGMHsi-215" value="- product_canceling = {}" style="text;html=1;strokeColor=none;fillColor=none;align=left;verticalAlign=middle;spacingLeft=4;spacingRight=4;overflow=hidden;rotatable=0;points=[[0,0.5],[1,0.5]];portConstraint=eastwest;whiteSpace=wrap;" vertex="1" parent="vN5kve3PeMKoZxvb_3zb-71">
          <mxGeometry y="154" width="230" height="25" as="geometry" />
        </mxCell>
        <mxCell id="EKBpt0zWMikfl3YGMHsi-214" value="- manager_constraints = ()" style="text;html=1;strokeColor=none;fillColor=none;align=left;verticalAlign=middle;spacingLeft=4;spacingRight=4;overflow=hidden;rotatable=0;points=[[0,0.5],[1,0.5]];portConstraint=eastwest;whiteSpace=wrap;" vertex="1" parent="vN5kve3PeMKoZxvb_3zb-71">
          <mxGeometry y="179" width="230" height="25" as="geometry" />
        </mxCell>
        <mxCell id="EKBpt0zWMikfl3YGMHsi-213" value="- confirmed = false" style="text;html=1;strokeColor=none;fillColor=none;align=left;verticalAlign=middle;spacingLeft=4;spacingRight=4;overflow=hidden;rotatable=0;points=[[0,0.5],[1,0.5]];portConstraint=eastwest;whiteSpace=wrap;" vertex="1" parent="vN5kve3PeMKoZxvb_3zb-71">
          <mxGeometry y="204" width="230" height="25" as="geometry" />
        </mxCell>
        <mxCell id="vN5kve3PeMKoZxvb_3zb-179" style="edgeStyle=orthogonalEdgeStyle;rounded=0;orthogonalLoop=1;jettySize=auto;html=1;exitX=0.75;exitY=0;exitDx=0;exitDy=0;entryX=0;entryY=0.5;entryDx=0;entryDy=0;endArrow=none;endFill=0;startArrow=open;startFill=0;" parent="1" source="vN5kve3PeMKoZxvb_3zb-79" target="vN5kve3PeMKoZxvb_3zb-64" edge="1">
          <mxGeometry relative="1" as="geometry">
            <Array as="points">
              <mxPoint x="-368" y="1400" />
              <mxPoint x="150" y="1400" />
              <mxPoint x="150" y="1360" />
              <mxPoint x="420" y="1360" />
            </Array>
          </mxGeometry>
        </mxCell>
        <mxCell id="vN5kve3PeMKoZxvb_3zb-79" value="sun_evening: Shift" style="swimlane;fontStyle=1;align=center;verticalAlign=middle;childLayout=stackLayout;horizontal=1;startSize=29;horizontalStack=0;resizeParent=1;resizeParentMax=0;resizeLast=0;collapsible=0;marginBottom=0;html=1;whiteSpace=wrap;" parent="1" vertex="1">
          <mxGeometry x="-540" y="1440" width="230" height="229" as="geometry" />
        </mxCell>
        <mxCell id="EKBpt0zWMikfl3YGMHsi-202" value="- store = &quot;Be&#39;er Sheva&quot;&amp;nbsp;" style="text;html=1;strokeColor=none;fillColor=none;align=left;verticalAlign=middle;spacingLeft=4;spacingRight=4;overflow=hidden;rotatable=0;points=[[0,0.5],[1,0.5]];portConstraint=eastwest;whiteSpace=wrap;" vertex="1" parent="vN5kve3PeMKoZxvb_3zb-79">
          <mxGeometry y="29" width="230" height="25" as="geometry" />
        </mxCell>
        <mxCell id="EKBpt0zWMikfl3YGMHsi-203" value="- start = 14:00" style="text;html=1;strokeColor=none;fillColor=none;align=left;verticalAlign=middle;spacingLeft=4;spacingRight=4;overflow=hidden;rotatable=0;points=[[0,0.5],[1,0.5]];portConstraint=eastwest;whiteSpace=wrap;" vertex="1" parent="vN5kve3PeMKoZxvb_3zb-79">
          <mxGeometry y="54" width="230" height="25" as="geometry" />
        </mxCell>
        <mxCell id="EKBpt0zWMikfl3YGMHsi-204" value="- end = 22:00&amp;nbsp;" style="text;html=1;strokeColor=none;fillColor=none;align=left;verticalAlign=middle;spacingLeft=4;spacingRight=4;overflow=hidden;rotatable=0;points=[[0,0.5],[1,0.5]];portConstraint=eastwest;whiteSpace=wrap;" vertex="1" parent="vN5kve3PeMKoZxvb_3zb-79">
          <mxGeometry y="79" width="230" height="25" as="geometry" />
        </mxCell>
        <mxCell id="EKBpt0zWMikfl3YGMHsi-209" value="- employees = {}" style="text;html=1;strokeColor=none;fillColor=none;align=left;verticalAlign=middle;spacingLeft=4;spacingRight=4;overflow=hidden;rotatable=0;points=[[0,0.5],[1,0.5]];portConstraint=eastwest;whiteSpace=wrap;" vertex="1" parent="vN5kve3PeMKoZxvb_3zb-79">
          <mxGeometry y="104" width="230" height="25" as="geometry" />
        </mxCell>
        <mxCell id="EKBpt0zWMikfl3YGMHsi-208" value="- available_employees = (111111111)" style="text;html=1;strokeColor=none;fillColor=none;align=left;verticalAlign=middle;spacingLeft=4;spacingRight=4;overflow=hidden;rotatable=0;points=[[0,0.5],[1,0.5]];portConstraint=eastwest;whiteSpace=wrap;" vertex="1" parent="vN5kve3PeMKoZxvb_3zb-79">
          <mxGeometry y="129" width="230" height="25" as="geometry" />
        </mxCell>
        <mxCell id="EKBpt0zWMikfl3YGMHsi-207" value="- product_canceling = {}" style="text;html=1;strokeColor=none;fillColor=none;align=left;verticalAlign=middle;spacingLeft=4;spacingRight=4;overflow=hidden;rotatable=0;points=[[0,0.5],[1,0.5]];portConstraint=eastwest;whiteSpace=wrap;" vertex="1" parent="vN5kve3PeMKoZxvb_3zb-79">
          <mxGeometry y="154" width="230" height="25" as="geometry" />
        </mxCell>
        <mxCell id="EKBpt0zWMikfl3YGMHsi-206" value="- manager_constraints = ()" style="text;html=1;strokeColor=none;fillColor=none;align=left;verticalAlign=middle;spacingLeft=4;spacingRight=4;overflow=hidden;rotatable=0;points=[[0,0.5],[1,0.5]];portConstraint=eastwest;whiteSpace=wrap;" vertex="1" parent="vN5kve3PeMKoZxvb_3zb-79">
          <mxGeometry y="179" width="230" height="25" as="geometry" />
        </mxCell>
        <mxCell id="EKBpt0zWMikfl3YGMHsi-205" value="- confirmed = false" style="text;html=1;strokeColor=none;fillColor=none;align=left;verticalAlign=middle;spacingLeft=4;spacingRight=4;overflow=hidden;rotatable=0;points=[[0,0.5],[1,0.5]];portConstraint=eastwest;whiteSpace=wrap;" vertex="1" parent="vN5kve3PeMKoZxvb_3zb-79">
          <mxGeometry y="204" width="230" height="25" as="geometry" />
        </mxCell>
        <mxCell id="vN5kve3PeMKoZxvb_3zb-178" style="edgeStyle=orthogonalEdgeStyle;rounded=0;orthogonalLoop=1;jettySize=auto;html=1;entryX=0;entryY=0.5;entryDx=0;entryDy=0;endArrow=none;endFill=0;startArrow=open;startFill=0;" parent="1" source="vN5kve3PeMKoZxvb_3zb-86" target="vN5kve3PeMKoZxvb_3zb-64" edge="1">
          <mxGeometry relative="1" as="geometry">
            <Array as="points">
              <mxPoint x="-225" y="1410" />
              <mxPoint x="160" y="1410" />
              <mxPoint x="160" y="1359" />
              <mxPoint x="420" y="1359" />
            </Array>
          </mxGeometry>
        </mxCell>
        <mxCell id="vN5kve3PeMKoZxvb_3zb-86" value="mon_morning: Shift" style="swimlane;fontStyle=1;align=center;verticalAlign=middle;childLayout=stackLayout;horizontal=1;startSize=29;horizontalStack=0;resizeParent=1;resizeParentMax=0;resizeLast=0;collapsible=0;marginBottom=0;html=1;whiteSpace=wrap;" parent="1" vertex="1">
          <mxGeometry x="-300" y="1440" width="230" height="229" as="geometry" />
        </mxCell>
        <mxCell id="vN5kve3PeMKoZxvb_3zb-92" value="- store = &quot;Be&#39;er Sheva&quot;&amp;nbsp;" style="text;html=1;strokeColor=none;fillColor=none;align=left;verticalAlign=middle;spacingLeft=4;spacingRight=4;overflow=hidden;rotatable=0;points=[[0,0.5],[1,0.5]];portConstraint=eastwest;whiteSpace=wrap;" parent="vN5kve3PeMKoZxvb_3zb-86" vertex="1">
          <mxGeometry y="29" width="230" height="25" as="geometry" />
        </mxCell>
        <mxCell id="vN5kve3PeMKoZxvb_3zb-88" value="- start = 08:00" style="text;html=1;strokeColor=none;fillColor=none;align=left;verticalAlign=middle;spacingLeft=4;spacingRight=4;overflow=hidden;rotatable=0;points=[[0,0.5],[1,0.5]];portConstraint=eastwest;whiteSpace=wrap;" parent="vN5kve3PeMKoZxvb_3zb-86" vertex="1">
          <mxGeometry y="54" width="230" height="25" as="geometry" />
        </mxCell>
        <mxCell id="vN5kve3PeMKoZxvb_3zb-87" value="- end = 14:00&amp;nbsp;" style="text;html=1;strokeColor=none;fillColor=none;align=left;verticalAlign=middle;spacingLeft=4;spacingRight=4;overflow=hidden;rotatable=0;points=[[0,0.5],[1,0.5]];portConstraint=eastwest;whiteSpace=wrap;" parent="vN5kve3PeMKoZxvb_3zb-86" vertex="1">
          <mxGeometry y="79" width="230" height="25" as="geometry" />
        </mxCell>
        <mxCell id="vN5kve3PeMKoZxvb_3zb-89" value="- confirmed = false" style="text;html=1;strokeColor=none;fillColor=none;align=left;verticalAlign=middle;spacingLeft=4;spacingRight=4;overflow=hidden;rotatable=0;points=[[0,0.5],[1,0.5]];portConstraint=eastwest;whiteSpace=wrap;" parent="vN5kve3PeMKoZxvb_3zb-86" vertex="1">
          <mxGeometry y="104" width="230" height="25" as="geometry" />
        </mxCell>
        <mxCell id="vN5kve3PeMKoZxvb_3zb-90" value="- manager_constraints = ()" style="text;html=1;strokeColor=none;fillColor=none;align=left;verticalAlign=middle;spacingLeft=4;spacingRight=4;overflow=hidden;rotatable=0;points=[[0,0.5],[1,0.5]];portConstraint=eastwest;whiteSpace=wrap;" parent="vN5kve3PeMKoZxvb_3zb-86" vertex="1">
          <mxGeometry y="129" width="230" height="25" as="geometry" />
        </mxCell>
        <mxCell id="vN5kve3PeMKoZxvb_3zb-91" value="- product_canceling = {}" style="text;html=1;strokeColor=none;fillColor=none;align=left;verticalAlign=middle;spacingLeft=4;spacingRight=4;overflow=hidden;rotatable=0;points=[[0,0.5],[1,0.5]];portConstraint=eastwest;whiteSpace=wrap;" parent="vN5kve3PeMKoZxvb_3zb-86" vertex="1">
          <mxGeometry y="154" width="230" height="25" as="geometry" />
        </mxCell>
        <mxCell id="EKBpt0zWMikfl3YGMHsi-195" value="- available_employees = ()" style="text;html=1;strokeColor=none;fillColor=none;align=left;verticalAlign=middle;spacingLeft=4;spacingRight=4;overflow=hidden;rotatable=0;points=[[0,0.5],[1,0.5]];portConstraint=eastwest;whiteSpace=wrap;" vertex="1" parent="vN5kve3PeMKoZxvb_3zb-86">
          <mxGeometry y="179" width="230" height="25" as="geometry" />
        </mxCell>
        <mxCell id="EKBpt0zWMikfl3YGMHsi-196" value="- employees = {}" style="text;html=1;strokeColor=none;fillColor=none;align=left;verticalAlign=middle;spacingLeft=4;spacingRight=4;overflow=hidden;rotatable=0;points=[[0,0.5],[1,0.5]];portConstraint=eastwest;whiteSpace=wrap;" vertex="1" parent="vN5kve3PeMKoZxvb_3zb-86">
          <mxGeometry y="204" width="230" height="25" as="geometry" />
        </mxCell>
        <mxCell id="vN5kve3PeMKoZxvb_3zb-177" style="edgeStyle=orthogonalEdgeStyle;rounded=0;orthogonalLoop=1;jettySize=auto;html=1;exitX=0.5;exitY=0;exitDx=0;exitDy=0;endArrow=diamondThin;endFill=1;startArrow=open;startFill=0;startSize=6;endSize=15;" parent="1" edge="1">
          <mxGeometry relative="1" as="geometry">
            <Array as="points">
              <mxPoint x="59.900000000000006" y="1420" />
              <mxPoint x="169.89999999999998" y="1420" />
              <mxPoint x="169.89999999999998" y="1359" />
              <mxPoint x="419.9" y="1359" />
            </Array>
            <mxPoint x="59.900000000000006" y="1436" as="sourcePoint" />
            <mxPoint x="419.9" y="1359" as="targetPoint" />
          </mxGeometry>
        </mxCell>
        <mxCell id="vN5kve3PeMKoZxvb_3zb-93" value="mon_evening: Shift" style="swimlane;fontStyle=1;align=center;verticalAlign=middle;childLayout=stackLayout;horizontal=1;startSize=29;horizontalStack=0;resizeParent=1;resizeParentMax=0;resizeLast=0;collapsible=0;marginBottom=0;html=1;whiteSpace=wrap;" parent="1" vertex="1">
          <mxGeometry x="-60" y="1436" width="240" height="250" as="geometry" />
        </mxCell>
        <mxCell id="EKBpt0zWMikfl3YGMHsi-218" value="- store = &quot;Be&#39;er Sheva&quot;&amp;nbsp;" style="text;html=1;strokeColor=none;fillColor=none;align=left;verticalAlign=middle;spacingLeft=4;spacingRight=4;overflow=hidden;rotatable=0;points=[[0,0.5],[1,0.5]];portConstraint=eastwest;whiteSpace=wrap;" vertex="1" parent="vN5kve3PeMKoZxvb_3zb-93">
          <mxGeometry y="29" width="240" height="25" as="geometry" />
        </mxCell>
        <mxCell id="EKBpt0zWMikfl3YGMHsi-306" value="- start = 14:00" style="text;html=1;strokeColor=none;fillColor=none;align=left;verticalAlign=middle;spacingLeft=4;spacingRight=4;overflow=hidden;rotatable=0;points=[[0,0.5],[1,0.5]];portConstraint=eastwest;whiteSpace=wrap;" vertex="1" parent="vN5kve3PeMKoZxvb_3zb-93">
          <mxGeometry y="54" width="240" height="25" as="geometry" />
        </mxCell>
        <mxCell id="EKBpt0zWMikfl3YGMHsi-307" value="- end = 22:00&amp;nbsp;" style="text;html=1;strokeColor=none;fillColor=none;align=left;verticalAlign=middle;spacingLeft=4;spacingRight=4;overflow=hidden;rotatable=0;points=[[0,0.5],[1,0.5]];portConstraint=eastwest;whiteSpace=wrap;" vertex="1" parent="vN5kve3PeMKoZxvb_3zb-93">
          <mxGeometry y="79" width="240" height="25" as="geometry" />
        </mxCell>
        <mxCell id="EKBpt0zWMikfl3YGMHsi-225" value="- employees = {&lt;br&gt;[CASHIER, (111111111)]&lt;br&gt;}" style="text;html=1;strokeColor=none;fillColor=none;align=left;verticalAlign=middle;spacingLeft=4;spacingRight=4;overflow=hidden;rotatable=0;points=[[0,0.5],[1,0.5]];portConstraint=eastwest;whiteSpace=wrap;" vertex="1" parent="vN5kve3PeMKoZxvb_3zb-93">
          <mxGeometry y="104" width="240" height="46" as="geometry" />
        </mxCell>
        <mxCell id="EKBpt0zWMikfl3YGMHsi-224" value="- available_employees = ()" style="text;html=1;strokeColor=none;fillColor=none;align=left;verticalAlign=middle;spacingLeft=4;spacingRight=4;overflow=hidden;rotatable=0;points=[[0,0.5],[1,0.5]];portConstraint=eastwest;whiteSpace=wrap;" vertex="1" parent="vN5kve3PeMKoZxvb_3zb-93">
          <mxGeometry y="150" width="240" height="25" as="geometry" />
        </mxCell>
        <mxCell id="EKBpt0zWMikfl3YGMHsi-223" value="- product_canceling = {}" style="text;html=1;strokeColor=none;fillColor=none;align=left;verticalAlign=middle;spacingLeft=4;spacingRight=4;overflow=hidden;rotatable=0;points=[[0,0.5],[1,0.5]];portConstraint=eastwest;whiteSpace=wrap;" vertex="1" parent="vN5kve3PeMKoZxvb_3zb-93">
          <mxGeometry y="175" width="240" height="25" as="geometry" />
        </mxCell>
        <mxCell id="EKBpt0zWMikfl3YGMHsi-222" value="- manager_constraints = ()" style="text;html=1;strokeColor=none;fillColor=none;align=left;verticalAlign=middle;spacingLeft=4;spacingRight=4;overflow=hidden;rotatable=0;points=[[0,0.5],[1,0.5]];portConstraint=eastwest;whiteSpace=wrap;" vertex="1" parent="vN5kve3PeMKoZxvb_3zb-93">
          <mxGeometry y="200" width="240" height="25" as="geometry" />
        </mxCell>
        <mxCell id="EKBpt0zWMikfl3YGMHsi-221" value="- confirmed = false" style="text;html=1;strokeColor=none;fillColor=none;align=left;verticalAlign=middle;spacingLeft=4;spacingRight=4;overflow=hidden;rotatable=0;points=[[0,0.5],[1,0.5]];portConstraint=eastwest;whiteSpace=wrap;" vertex="1" parent="vN5kve3PeMKoZxvb_3zb-93">
          <mxGeometry y="225" width="240" height="25" as="geometry" />
        </mxCell>
        <mxCell id="vN5kve3PeMKoZxvb_3zb-186" style="edgeStyle=orthogonalEdgeStyle;rounded=0;orthogonalLoop=1;jettySize=auto;html=1;exitX=0.5;exitY=0;exitDx=0;exitDy=0;endArrow=none;endFill=0;startArrow=open;startFill=0;" parent="1" source="vN5kve3PeMKoZxvb_3zb-100" edge="1">
          <mxGeometry relative="1" as="geometry">
            <Array as="points">
              <mxPoint x="-665" y="1740" />
              <mxPoint x="-668" y="1740" />
              <mxPoint x="-668" y="1710" />
              <mxPoint x="280" y="1710" />
              <mxPoint x="280" y="1550" />
              <mxPoint x="420" y="1550" />
            </Array>
            <mxPoint x="420" y="1560" as="targetPoint" />
          </mxGeometry>
        </mxCell>
        <mxCell id="vN5kve3PeMKoZxvb_3zb-100" value="tue_morning: Shift" style="swimlane;fontStyle=1;align=center;verticalAlign=middle;childLayout=stackLayout;horizontal=1;startSize=29;horizontalStack=0;resizeParent=1;resizeParentMax=0;resizeLast=0;collapsible=0;marginBottom=0;html=1;whiteSpace=wrap;" parent="1" vertex="1">
          <mxGeometry x="-780" y="1761" width="230" height="229" as="geometry" />
        </mxCell>
        <mxCell id="EKBpt0zWMikfl3YGMHsi-250" value="- store = &quot;Be&#39;er Sheva&quot;&amp;nbsp;" style="text;html=1;strokeColor=none;fillColor=none;align=left;verticalAlign=middle;spacingLeft=4;spacingRight=4;overflow=hidden;rotatable=0;points=[[0,0.5],[1,0.5]];portConstraint=eastwest;whiteSpace=wrap;" vertex="1" parent="vN5kve3PeMKoZxvb_3zb-100">
          <mxGeometry y="29" width="230" height="25" as="geometry" />
        </mxCell>
        <mxCell id="EKBpt0zWMikfl3YGMHsi-251" value="- start = 08:00" style="text;html=1;strokeColor=none;fillColor=none;align=left;verticalAlign=middle;spacingLeft=4;spacingRight=4;overflow=hidden;rotatable=0;points=[[0,0.5],[1,0.5]];portConstraint=eastwest;whiteSpace=wrap;" vertex="1" parent="vN5kve3PeMKoZxvb_3zb-100">
          <mxGeometry y="54" width="230" height="25" as="geometry" />
        </mxCell>
        <mxCell id="EKBpt0zWMikfl3YGMHsi-252" value="- end = 14:00&amp;nbsp;" style="text;html=1;strokeColor=none;fillColor=none;align=left;verticalAlign=middle;spacingLeft=4;spacingRight=4;overflow=hidden;rotatable=0;points=[[0,0.5],[1,0.5]];portConstraint=eastwest;whiteSpace=wrap;" vertex="1" parent="vN5kve3PeMKoZxvb_3zb-100">
          <mxGeometry y="79" width="230" height="25" as="geometry" />
        </mxCell>
        <mxCell id="EKBpt0zWMikfl3YGMHsi-257" value="- employees = {}" style="text;html=1;strokeColor=none;fillColor=none;align=left;verticalAlign=middle;spacingLeft=4;spacingRight=4;overflow=hidden;rotatable=0;points=[[0,0.5],[1,0.5]];portConstraint=eastwest;whiteSpace=wrap;" vertex="1" parent="vN5kve3PeMKoZxvb_3zb-100">
          <mxGeometry y="104" width="230" height="25" as="geometry" />
        </mxCell>
        <mxCell id="EKBpt0zWMikfl3YGMHsi-256" value="- available_employees = ()" style="text;html=1;strokeColor=none;fillColor=none;align=left;verticalAlign=middle;spacingLeft=4;spacingRight=4;overflow=hidden;rotatable=0;points=[[0,0.5],[1,0.5]];portConstraint=eastwest;whiteSpace=wrap;" vertex="1" parent="vN5kve3PeMKoZxvb_3zb-100">
          <mxGeometry y="129" width="230" height="25" as="geometry" />
        </mxCell>
        <mxCell id="EKBpt0zWMikfl3YGMHsi-255" value="- product_canceling = {}" style="text;html=1;strokeColor=none;fillColor=none;align=left;verticalAlign=middle;spacingLeft=4;spacingRight=4;overflow=hidden;rotatable=0;points=[[0,0.5],[1,0.5]];portConstraint=eastwest;whiteSpace=wrap;" vertex="1" parent="vN5kve3PeMKoZxvb_3zb-100">
          <mxGeometry y="154" width="230" height="25" as="geometry" />
        </mxCell>
        <mxCell id="EKBpt0zWMikfl3YGMHsi-254" value="- manager_constraints = ()" style="text;html=1;strokeColor=none;fillColor=none;align=left;verticalAlign=middle;spacingLeft=4;spacingRight=4;overflow=hidden;rotatable=0;points=[[0,0.5],[1,0.5]];portConstraint=eastwest;whiteSpace=wrap;" vertex="1" parent="vN5kve3PeMKoZxvb_3zb-100">
          <mxGeometry y="179" width="230" height="25" as="geometry" />
        </mxCell>
        <mxCell id="EKBpt0zWMikfl3YGMHsi-253" value="- confirmed = false" style="text;html=1;strokeColor=none;fillColor=none;align=left;verticalAlign=middle;spacingLeft=4;spacingRight=4;overflow=hidden;rotatable=0;points=[[0,0.5],[1,0.5]];portConstraint=eastwest;whiteSpace=wrap;" vertex="1" parent="vN5kve3PeMKoZxvb_3zb-100">
          <mxGeometry y="204" width="230" height="25" as="geometry" />
        </mxCell>
        <mxCell id="vN5kve3PeMKoZxvb_3zb-185" style="edgeStyle=orthogonalEdgeStyle;rounded=0;orthogonalLoop=1;jettySize=auto;html=1;endArrow=none;endFill=0;exitX=0.5;exitY=0;exitDx=0;exitDy=0;startArrow=open;startFill=0;" parent="1" source="vN5kve3PeMKoZxvb_3zb-107" edge="1">
          <mxGeometry relative="1" as="geometry">
            <Array as="points">
              <mxPoint x="-425" y="1740" />
              <mxPoint x="-428" y="1740" />
              <mxPoint x="-428" y="1720" />
              <mxPoint x="300" y="1720" />
              <mxPoint x="300" y="1550" />
              <mxPoint x="420" y="1550" />
            </Array>
            <mxPoint x="-420" y="1740" as="sourcePoint" />
            <mxPoint x="420" y="1560" as="targetPoint" />
          </mxGeometry>
        </mxCell>
        <mxCell id="vN5kve3PeMKoZxvb_3zb-107" value="tue_evening: Shift" style="swimlane;fontStyle=1;align=center;verticalAlign=middle;childLayout=stackLayout;horizontal=1;startSize=29;horizontalStack=0;resizeParent=1;resizeParentMax=0;resizeLast=0;collapsible=0;marginBottom=0;html=1;whiteSpace=wrap;" parent="1" vertex="1">
          <mxGeometry x="-540" y="1760" width="230" height="229" as="geometry" />
        </mxCell>
        <mxCell id="EKBpt0zWMikfl3YGMHsi-242" value="- store = &quot;Be&#39;er Sheva&quot;&amp;nbsp;" style="text;html=1;strokeColor=none;fillColor=none;align=left;verticalAlign=middle;spacingLeft=4;spacingRight=4;overflow=hidden;rotatable=0;points=[[0,0.5],[1,0.5]];portConstraint=eastwest;whiteSpace=wrap;" vertex="1" parent="vN5kve3PeMKoZxvb_3zb-107">
          <mxGeometry y="29" width="230" height="25" as="geometry" />
        </mxCell>
        <mxCell id="EKBpt0zWMikfl3YGMHsi-309" value="- end = 22:00&amp;nbsp;" style="text;html=1;strokeColor=none;fillColor=none;align=left;verticalAlign=middle;spacingLeft=4;spacingRight=4;overflow=hidden;rotatable=0;points=[[0,0.5],[1,0.5]];portConstraint=eastwest;whiteSpace=wrap;" vertex="1" parent="vN5kve3PeMKoZxvb_3zb-107">
          <mxGeometry y="54" width="230" height="25" as="geometry" />
        </mxCell>
        <mxCell id="EKBpt0zWMikfl3YGMHsi-308" value="- start = 14:00" style="text;html=1;strokeColor=none;fillColor=none;align=left;verticalAlign=middle;spacingLeft=4;spacingRight=4;overflow=hidden;rotatable=0;points=[[0,0.5],[1,0.5]];portConstraint=eastwest;whiteSpace=wrap;" vertex="1" parent="vN5kve3PeMKoZxvb_3zb-107">
          <mxGeometry y="79" width="230" height="25" as="geometry" />
        </mxCell>
        <mxCell id="EKBpt0zWMikfl3YGMHsi-245" value="- confirmed = false" style="text;html=1;strokeColor=none;fillColor=none;align=left;verticalAlign=middle;spacingLeft=4;spacingRight=4;overflow=hidden;rotatable=0;points=[[0,0.5],[1,0.5]];portConstraint=eastwest;whiteSpace=wrap;" vertex="1" parent="vN5kve3PeMKoZxvb_3zb-107">
          <mxGeometry y="104" width="230" height="25" as="geometry" />
        </mxCell>
        <mxCell id="EKBpt0zWMikfl3YGMHsi-246" value="- manager_constraints = ()" style="text;html=1;strokeColor=none;fillColor=none;align=left;verticalAlign=middle;spacingLeft=4;spacingRight=4;overflow=hidden;rotatable=0;points=[[0,0.5],[1,0.5]];portConstraint=eastwest;whiteSpace=wrap;" vertex="1" parent="vN5kve3PeMKoZxvb_3zb-107">
          <mxGeometry y="129" width="230" height="25" as="geometry" />
        </mxCell>
        <mxCell id="EKBpt0zWMikfl3YGMHsi-249" value="- employees = {}" style="text;html=1;strokeColor=none;fillColor=none;align=left;verticalAlign=middle;spacingLeft=4;spacingRight=4;overflow=hidden;rotatable=0;points=[[0,0.5],[1,0.5]];portConstraint=eastwest;whiteSpace=wrap;" vertex="1" parent="vN5kve3PeMKoZxvb_3zb-107">
          <mxGeometry y="154" width="230" height="25" as="geometry" />
        </mxCell>
        <mxCell id="EKBpt0zWMikfl3YGMHsi-248" value="- available_employees = ()" style="text;html=1;strokeColor=none;fillColor=none;align=left;verticalAlign=middle;spacingLeft=4;spacingRight=4;overflow=hidden;rotatable=0;points=[[0,0.5],[1,0.5]];portConstraint=eastwest;whiteSpace=wrap;" vertex="1" parent="vN5kve3PeMKoZxvb_3zb-107">
          <mxGeometry y="179" width="230" height="25" as="geometry" />
        </mxCell>
        <mxCell id="EKBpt0zWMikfl3YGMHsi-247" value="- product_canceling = {}" style="text;html=1;strokeColor=none;fillColor=none;align=left;verticalAlign=middle;spacingLeft=4;spacingRight=4;overflow=hidden;rotatable=0;points=[[0,0.5],[1,0.5]];portConstraint=eastwest;whiteSpace=wrap;" vertex="1" parent="vN5kve3PeMKoZxvb_3zb-107">
          <mxGeometry y="204" width="230" height="25" as="geometry" />
        </mxCell>
        <mxCell id="vN5kve3PeMKoZxvb_3zb-184" style="edgeStyle=orthogonalEdgeStyle;rounded=0;orthogonalLoop=1;jettySize=auto;html=1;exitX=0.5;exitY=0;exitDx=0;exitDy=0;endArrow=none;endFill=0;startArrow=open;startFill=0;" parent="1" source="vN5kve3PeMKoZxvb_3zb-114" edge="1">
          <mxGeometry relative="1" as="geometry">
            <Array as="points">
              <mxPoint x="-185" y="1740" />
              <mxPoint x="-188" y="1740" />
              <mxPoint x="-188" y="1730" />
              <mxPoint x="320" y="1730" />
              <mxPoint x="320" y="1550" />
              <mxPoint x="420" y="1550" />
            </Array>
            <mxPoint x="420" y="1560" as="targetPoint" />
          </mxGeometry>
        </mxCell>
        <mxCell id="vN5kve3PeMKoZxvb_3zb-114" value="wed_morning: Shift" style="swimlane;fontStyle=1;align=center;verticalAlign=middle;childLayout=stackLayout;horizontal=1;startSize=29;horizontalStack=0;resizeParent=1;resizeParentMax=0;resizeLast=0;collapsible=0;marginBottom=0;html=1;whiteSpace=wrap;" parent="1" vertex="1">
          <mxGeometry x="-300" y="1760" width="230" height="229" as="geometry" />
        </mxCell>
        <mxCell id="EKBpt0zWMikfl3YGMHsi-234" value="- store = &quot;Be&#39;er Sheva&quot;&amp;nbsp;" style="text;html=1;strokeColor=none;fillColor=none;align=left;verticalAlign=middle;spacingLeft=4;spacingRight=4;overflow=hidden;rotatable=0;points=[[0,0.5],[1,0.5]];portConstraint=eastwest;whiteSpace=wrap;" vertex="1" parent="vN5kve3PeMKoZxvb_3zb-114">
          <mxGeometry y="29" width="230" height="25" as="geometry" />
        </mxCell>
        <mxCell id="EKBpt0zWMikfl3YGMHsi-235" value="- start = 08:00" style="text;html=1;strokeColor=none;fillColor=none;align=left;verticalAlign=middle;spacingLeft=4;spacingRight=4;overflow=hidden;rotatable=0;points=[[0,0.5],[1,0.5]];portConstraint=eastwest;whiteSpace=wrap;" vertex="1" parent="vN5kve3PeMKoZxvb_3zb-114">
          <mxGeometry y="54" width="230" height="25" as="geometry" />
        </mxCell>
        <mxCell id="EKBpt0zWMikfl3YGMHsi-236" value="- end = 14:00&amp;nbsp;" style="text;html=1;strokeColor=none;fillColor=none;align=left;verticalAlign=middle;spacingLeft=4;spacingRight=4;overflow=hidden;rotatable=0;points=[[0,0.5],[1,0.5]];portConstraint=eastwest;whiteSpace=wrap;" vertex="1" parent="vN5kve3PeMKoZxvb_3zb-114">
          <mxGeometry y="79" width="230" height="25" as="geometry" />
        </mxCell>
        <mxCell id="EKBpt0zWMikfl3YGMHsi-237" value="- confirmed = false" style="text;html=1;strokeColor=none;fillColor=none;align=left;verticalAlign=middle;spacingLeft=4;spacingRight=4;overflow=hidden;rotatable=0;points=[[0,0.5],[1,0.5]];portConstraint=eastwest;whiteSpace=wrap;" vertex="1" parent="vN5kve3PeMKoZxvb_3zb-114">
          <mxGeometry y="104" width="230" height="25" as="geometry" />
        </mxCell>
        <mxCell id="EKBpt0zWMikfl3YGMHsi-241" value="- employees = {}" style="text;html=1;strokeColor=none;fillColor=none;align=left;verticalAlign=middle;spacingLeft=4;spacingRight=4;overflow=hidden;rotatable=0;points=[[0,0.5],[1,0.5]];portConstraint=eastwest;whiteSpace=wrap;" vertex="1" parent="vN5kve3PeMKoZxvb_3zb-114">
          <mxGeometry y="129" width="230" height="25" as="geometry" />
        </mxCell>
        <mxCell id="EKBpt0zWMikfl3YGMHsi-240" value="- available_employees = ()" style="text;html=1;strokeColor=none;fillColor=none;align=left;verticalAlign=middle;spacingLeft=4;spacingRight=4;overflow=hidden;rotatable=0;points=[[0,0.5],[1,0.5]];portConstraint=eastwest;whiteSpace=wrap;" vertex="1" parent="vN5kve3PeMKoZxvb_3zb-114">
          <mxGeometry y="154" width="230" height="25" as="geometry" />
        </mxCell>
        <mxCell id="EKBpt0zWMikfl3YGMHsi-239" value="- product_canceling = {}" style="text;html=1;strokeColor=none;fillColor=none;align=left;verticalAlign=middle;spacingLeft=4;spacingRight=4;overflow=hidden;rotatable=0;points=[[0,0.5],[1,0.5]];portConstraint=eastwest;whiteSpace=wrap;" vertex="1" parent="vN5kve3PeMKoZxvb_3zb-114">
          <mxGeometry y="179" width="230" height="25" as="geometry" />
        </mxCell>
        <mxCell id="EKBpt0zWMikfl3YGMHsi-238" value="- manager_constraints = ()" style="text;html=1;strokeColor=none;fillColor=none;align=left;verticalAlign=middle;spacingLeft=4;spacingRight=4;overflow=hidden;rotatable=0;points=[[0,0.5],[1,0.5]];portConstraint=eastwest;whiteSpace=wrap;" vertex="1" parent="vN5kve3PeMKoZxvb_3zb-114">
          <mxGeometry y="204" width="230" height="25" as="geometry" />
        </mxCell>
        <mxCell id="vN5kve3PeMKoZxvb_3zb-183" style="edgeStyle=orthogonalEdgeStyle;rounded=0;orthogonalLoop=1;jettySize=auto;html=1;exitX=0.5;exitY=0;exitDx=0;exitDy=0;endArrow=diamondThin;endFill=1;startArrow=open;startFill=0;startSize=6;endSize=14;" parent="1" source="vN5kve3PeMKoZxvb_3zb-121" edge="1">
          <mxGeometry relative="1" as="geometry">
            <Array as="points">
              <mxPoint x="65" y="1740" />
              <mxPoint x="340" y="1740" />
              <mxPoint x="340" y="1550" />
              <mxPoint x="420" y="1550" />
            </Array>
            <mxPoint x="410" y="1550" as="targetPoint" />
          </mxGeometry>
        </mxCell>
        <mxCell id="vN5kve3PeMKoZxvb_3zb-121" value="wed_evening: Shift" style="swimlane;fontStyle=1;align=center;verticalAlign=middle;childLayout=stackLayout;horizontal=1;startSize=29;horizontalStack=0;resizeParent=1;resizeParentMax=0;resizeLast=0;collapsible=0;marginBottom=0;html=1;whiteSpace=wrap;" parent="1" vertex="1">
          <mxGeometry x="-60" y="1761" width="250" height="250" as="geometry" />
        </mxCell>
        <mxCell id="EKBpt0zWMikfl3YGMHsi-226" value="- store = &quot;Be&#39;er Sheva&quot;&amp;nbsp;" style="text;html=1;strokeColor=none;fillColor=none;align=left;verticalAlign=middle;spacingLeft=4;spacingRight=4;overflow=hidden;rotatable=0;points=[[0,0.5],[1,0.5]];portConstraint=eastwest;whiteSpace=wrap;" vertex="1" parent="vN5kve3PeMKoZxvb_3zb-121">
          <mxGeometry y="29" width="250" height="25" as="geometry" />
        </mxCell>
        <mxCell id="EKBpt0zWMikfl3YGMHsi-310" value="- start = 14:00" style="text;html=1;strokeColor=none;fillColor=none;align=left;verticalAlign=middle;spacingLeft=4;spacingRight=4;overflow=hidden;rotatable=0;points=[[0,0.5],[1,0.5]];portConstraint=eastwest;whiteSpace=wrap;" vertex="1" parent="vN5kve3PeMKoZxvb_3zb-121">
          <mxGeometry y="54" width="250" height="25" as="geometry" />
        </mxCell>
        <mxCell id="EKBpt0zWMikfl3YGMHsi-311" value="- end = 22:00&amp;nbsp;" style="text;html=1;strokeColor=none;fillColor=none;align=left;verticalAlign=middle;spacingLeft=4;spacingRight=4;overflow=hidden;rotatable=0;points=[[0,0.5],[1,0.5]];portConstraint=eastwest;whiteSpace=wrap;" vertex="1" parent="vN5kve3PeMKoZxvb_3zb-121">
          <mxGeometry y="79" width="250" height="25" as="geometry" />
        </mxCell>
        <mxCell id="EKBpt0zWMikfl3YGMHsi-229" value="- confirmed = false" style="text;html=1;strokeColor=none;fillColor=none;align=left;verticalAlign=middle;spacingLeft=4;spacingRight=4;overflow=hidden;rotatable=0;points=[[0,0.5],[1,0.5]];portConstraint=eastwest;whiteSpace=wrap;" vertex="1" parent="vN5kve3PeMKoZxvb_3zb-121">
          <mxGeometry y="104" width="250" height="25" as="geometry" />
        </mxCell>
        <mxCell id="EKBpt0zWMikfl3YGMHsi-230" value="- manager_constraints = ()" style="text;html=1;strokeColor=none;fillColor=none;align=left;verticalAlign=middle;spacingLeft=4;spacingRight=4;overflow=hidden;rotatable=0;points=[[0,0.5],[1,0.5]];portConstraint=eastwest;whiteSpace=wrap;" vertex="1" parent="vN5kve3PeMKoZxvb_3zb-121">
          <mxGeometry y="129" width="250" height="25" as="geometry" />
        </mxCell>
        <mxCell id="EKBpt0zWMikfl3YGMHsi-327" value="- employees = {&lt;br&gt;[STOREKEEPER, (111111111)]&lt;br&gt;}" style="text;html=1;strokeColor=none;fillColor=none;align=left;verticalAlign=middle;spacingLeft=4;spacingRight=4;overflow=hidden;rotatable=0;points=[[0,0.5],[1,0.5]];portConstraint=eastwest;whiteSpace=wrap;" vertex="1" parent="vN5kve3PeMKoZxvb_3zb-121">
          <mxGeometry y="154" width="250" height="46" as="geometry" />
        </mxCell>
        <mxCell id="EKBpt0zWMikfl3YGMHsi-232" value="- available_employees = (111111111)" style="text;html=1;strokeColor=none;fillColor=none;align=left;verticalAlign=middle;spacingLeft=4;spacingRight=4;overflow=hidden;rotatable=0;points=[[0,0.5],[1,0.5]];portConstraint=eastwest;whiteSpace=wrap;" vertex="1" parent="vN5kve3PeMKoZxvb_3zb-121">
          <mxGeometry y="200" width="250" height="25" as="geometry" />
        </mxCell>
        <mxCell id="EKBpt0zWMikfl3YGMHsi-231" value="- product_canceling = {}" style="text;html=1;strokeColor=none;fillColor=none;align=left;verticalAlign=middle;spacingLeft=4;spacingRight=4;overflow=hidden;rotatable=0;points=[[0,0.5],[1,0.5]];portConstraint=eastwest;whiteSpace=wrap;" vertex="1" parent="vN5kve3PeMKoZxvb_3zb-121">
          <mxGeometry y="225" width="250" height="25" as="geometry" />
        </mxCell>
        <mxCell id="vN5kve3PeMKoZxvb_3zb-190" style="edgeStyle=orthogonalEdgeStyle;rounded=0;orthogonalLoop=1;jettySize=auto;html=1;exitX=0.5;exitY=0;exitDx=0;exitDy=0;entryX=0.118;entryY=1.071;entryDx=0;entryDy=0;endArrow=none;endFill=0;startArrow=open;startFill=0;entryPerimeter=0;" parent="1" source="vN5kve3PeMKoZxvb_3zb-128" target="EKBpt0zWMikfl3YGMHsi-178" edge="1">
          <mxGeometry relative="1" as="geometry">
            <Array as="points">
              <mxPoint x="-665" y="2040" />
              <mxPoint x="350" y="2040" />
              <mxPoint x="350" y="1870" />
              <mxPoint x="497" y="1870" />
            </Array>
            <mxPoint x="420" y="1730" as="targetPoint" />
          </mxGeometry>
        </mxCell>
        <mxCell id="vN5kve3PeMKoZxvb_3zb-128" value="thu_morning: Shift" style="swimlane;fontStyle=1;align=center;verticalAlign=middle;childLayout=stackLayout;horizontal=1;startSize=29;horizontalStack=0;resizeParent=1;resizeParentMax=0;resizeLast=0;collapsible=0;marginBottom=0;html=1;whiteSpace=wrap;" parent="1" vertex="1">
          <mxGeometry x="-780" y="2102" width="230" height="229" as="geometry" />
        </mxCell>
        <mxCell id="EKBpt0zWMikfl3YGMHsi-258" value="- store = &quot;Be&#39;er Sheva&quot;&amp;nbsp;" style="text;html=1;strokeColor=none;fillColor=none;align=left;verticalAlign=middle;spacingLeft=4;spacingRight=4;overflow=hidden;rotatable=0;points=[[0,0.5],[1,0.5]];portConstraint=eastwest;whiteSpace=wrap;" vertex="1" parent="vN5kve3PeMKoZxvb_3zb-128">
          <mxGeometry y="29" width="230" height="25" as="geometry" />
        </mxCell>
        <mxCell id="EKBpt0zWMikfl3YGMHsi-259" value="- start = 08:00" style="text;html=1;strokeColor=none;fillColor=none;align=left;verticalAlign=middle;spacingLeft=4;spacingRight=4;overflow=hidden;rotatable=0;points=[[0,0.5],[1,0.5]];portConstraint=eastwest;whiteSpace=wrap;" vertex="1" parent="vN5kve3PeMKoZxvb_3zb-128">
          <mxGeometry y="54" width="230" height="25" as="geometry" />
        </mxCell>
        <mxCell id="EKBpt0zWMikfl3YGMHsi-260" value="- end = 14:00&amp;nbsp;" style="text;html=1;strokeColor=none;fillColor=none;align=left;verticalAlign=middle;spacingLeft=4;spacingRight=4;overflow=hidden;rotatable=0;points=[[0,0.5],[1,0.5]];portConstraint=eastwest;whiteSpace=wrap;" vertex="1" parent="vN5kve3PeMKoZxvb_3zb-128">
          <mxGeometry y="79" width="230" height="25" as="geometry" />
        </mxCell>
        <mxCell id="EKBpt0zWMikfl3YGMHsi-261" value="- confirmed = false" style="text;html=1;strokeColor=none;fillColor=none;align=left;verticalAlign=middle;spacingLeft=4;spacingRight=4;overflow=hidden;rotatable=0;points=[[0,0.5],[1,0.5]];portConstraint=eastwest;whiteSpace=wrap;" vertex="1" parent="vN5kve3PeMKoZxvb_3zb-128">
          <mxGeometry y="104" width="230" height="25" as="geometry" />
        </mxCell>
        <mxCell id="EKBpt0zWMikfl3YGMHsi-262" value="- manager_constraints = ()" style="text;html=1;strokeColor=none;fillColor=none;align=left;verticalAlign=middle;spacingLeft=4;spacingRight=4;overflow=hidden;rotatable=0;points=[[0,0.5],[1,0.5]];portConstraint=eastwest;whiteSpace=wrap;" vertex="1" parent="vN5kve3PeMKoZxvb_3zb-128">
          <mxGeometry y="129" width="230" height="25" as="geometry" />
        </mxCell>
        <mxCell id="EKBpt0zWMikfl3YGMHsi-265" value="- employees = {}" style="text;html=1;strokeColor=none;fillColor=none;align=left;verticalAlign=middle;spacingLeft=4;spacingRight=4;overflow=hidden;rotatable=0;points=[[0,0.5],[1,0.5]];portConstraint=eastwest;whiteSpace=wrap;" vertex="1" parent="vN5kve3PeMKoZxvb_3zb-128">
          <mxGeometry y="154" width="230" height="25" as="geometry" />
        </mxCell>
        <mxCell id="EKBpt0zWMikfl3YGMHsi-264" value="- available_employees = (111111111)" style="text;html=1;strokeColor=none;fillColor=none;align=left;verticalAlign=middle;spacingLeft=4;spacingRight=4;overflow=hidden;rotatable=0;points=[[0,0.5],[1,0.5]];portConstraint=eastwest;whiteSpace=wrap;" vertex="1" parent="vN5kve3PeMKoZxvb_3zb-128">
          <mxGeometry y="179" width="230" height="25" as="geometry" />
        </mxCell>
        <mxCell id="EKBpt0zWMikfl3YGMHsi-263" value="- product_canceling = {}" style="text;html=1;strokeColor=none;fillColor=none;align=left;verticalAlign=middle;spacingLeft=4;spacingRight=4;overflow=hidden;rotatable=0;points=[[0,0.5],[1,0.5]];portConstraint=eastwest;whiteSpace=wrap;" vertex="1" parent="vN5kve3PeMKoZxvb_3zb-128">
          <mxGeometry y="204" width="230" height="25" as="geometry" />
        </mxCell>
        <mxCell id="vN5kve3PeMKoZxvb_3zb-189" style="edgeStyle=orthogonalEdgeStyle;rounded=0;orthogonalLoop=1;jettySize=auto;html=1;exitX=0.5;exitY=0;exitDx=0;exitDy=0;entryX=0.116;entryY=0.96;entryDx=0;entryDy=0;endArrow=none;endFill=0;startArrow=open;startFill=0;entryPerimeter=0;" parent="1" source="vN5kve3PeMKoZxvb_3zb-135" target="EKBpt0zWMikfl3YGMHsi-178" edge="1">
          <mxGeometry relative="1" as="geometry">
            <Array as="points">
              <mxPoint x="-425" y="2050" />
              <mxPoint x="370" y="2050" />
              <mxPoint x="370" y="1870" />
              <mxPoint x="495" y="1870" />
            </Array>
            <mxPoint x="420" y="1730" as="targetPoint" />
          </mxGeometry>
        </mxCell>
        <mxCell id="vN5kve3PeMKoZxvb_3zb-135" value="thu_evening: Shift" style="swimlane;fontStyle=1;align=center;verticalAlign=middle;childLayout=stackLayout;horizontal=1;startSize=29;horizontalStack=0;resizeParent=1;resizeParentMax=0;resizeLast=0;collapsible=0;marginBottom=0;html=1;whiteSpace=wrap;" parent="1" vertex="1">
          <mxGeometry x="-540" y="2102" width="230" height="229" as="geometry" />
        </mxCell>
        <mxCell id="EKBpt0zWMikfl3YGMHsi-266" value="- store = &quot;Be&#39;er Sheva&quot;&amp;nbsp;" style="text;html=1;strokeColor=none;fillColor=none;align=left;verticalAlign=middle;spacingLeft=4;spacingRight=4;overflow=hidden;rotatable=0;points=[[0,0.5],[1,0.5]];portConstraint=eastwest;whiteSpace=wrap;" vertex="1" parent="vN5kve3PeMKoZxvb_3zb-135">
          <mxGeometry y="29" width="230" height="25" as="geometry" />
        </mxCell>
        <mxCell id="EKBpt0zWMikfl3YGMHsi-314" value="- start = 14:00" style="text;html=1;strokeColor=none;fillColor=none;align=left;verticalAlign=middle;spacingLeft=4;spacingRight=4;overflow=hidden;rotatable=0;points=[[0,0.5],[1,0.5]];portConstraint=eastwest;whiteSpace=wrap;" vertex="1" parent="vN5kve3PeMKoZxvb_3zb-135">
          <mxGeometry y="54" width="230" height="25" as="geometry" />
        </mxCell>
        <mxCell id="EKBpt0zWMikfl3YGMHsi-315" value="- end = 22:00&amp;nbsp;" style="text;html=1;strokeColor=none;fillColor=none;align=left;verticalAlign=middle;spacingLeft=4;spacingRight=4;overflow=hidden;rotatable=0;points=[[0,0.5],[1,0.5]];portConstraint=eastwest;whiteSpace=wrap;" vertex="1" parent="vN5kve3PeMKoZxvb_3zb-135">
          <mxGeometry y="79" width="230" height="25" as="geometry" />
        </mxCell>
        <mxCell id="EKBpt0zWMikfl3YGMHsi-269" value="- confirmed = false" style="text;html=1;strokeColor=none;fillColor=none;align=left;verticalAlign=middle;spacingLeft=4;spacingRight=4;overflow=hidden;rotatable=0;points=[[0,0.5],[1,0.5]];portConstraint=eastwest;whiteSpace=wrap;" vertex="1" parent="vN5kve3PeMKoZxvb_3zb-135">
          <mxGeometry y="104" width="230" height="25" as="geometry" />
        </mxCell>
        <mxCell id="EKBpt0zWMikfl3YGMHsi-270" value="- manager_constraints = ()" style="text;html=1;strokeColor=none;fillColor=none;align=left;verticalAlign=middle;spacingLeft=4;spacingRight=4;overflow=hidden;rotatable=0;points=[[0,0.5],[1,0.5]];portConstraint=eastwest;whiteSpace=wrap;" vertex="1" parent="vN5kve3PeMKoZxvb_3zb-135">
          <mxGeometry y="129" width="230" height="25" as="geometry" />
        </mxCell>
        <mxCell id="EKBpt0zWMikfl3YGMHsi-273" value="- employees = {}" style="text;html=1;strokeColor=none;fillColor=none;align=left;verticalAlign=middle;spacingLeft=4;spacingRight=4;overflow=hidden;rotatable=0;points=[[0,0.5],[1,0.5]];portConstraint=eastwest;whiteSpace=wrap;" vertex="1" parent="vN5kve3PeMKoZxvb_3zb-135">
          <mxGeometry y="154" width="230" height="25" as="geometry" />
        </mxCell>
        <mxCell id="EKBpt0zWMikfl3YGMHsi-272" value="- available_employees = ()" style="text;html=1;strokeColor=none;fillColor=none;align=left;verticalAlign=middle;spacingLeft=4;spacingRight=4;overflow=hidden;rotatable=0;points=[[0,0.5],[1,0.5]];portConstraint=eastwest;whiteSpace=wrap;" vertex="1" parent="vN5kve3PeMKoZxvb_3zb-135">
          <mxGeometry y="179" width="230" height="25" as="geometry" />
        </mxCell>
        <mxCell id="EKBpt0zWMikfl3YGMHsi-271" value="- product_canceling = {}" style="text;html=1;strokeColor=none;fillColor=none;align=left;verticalAlign=middle;spacingLeft=4;spacingRight=4;overflow=hidden;rotatable=0;points=[[0,0.5],[1,0.5]];portConstraint=eastwest;whiteSpace=wrap;" vertex="1" parent="vN5kve3PeMKoZxvb_3zb-135">
          <mxGeometry y="204" width="230" height="25" as="geometry" />
        </mxCell>
        <mxCell id="vN5kve3PeMKoZxvb_3zb-188" style="edgeStyle=orthogonalEdgeStyle;rounded=0;orthogonalLoop=1;jettySize=auto;html=1;exitX=0.5;exitY=0;exitDx=0;exitDy=0;endArrow=diamondThin;endFill=1;endSize=18;startArrow=open;startFill=0;entryX=0.116;entryY=1.071;entryDx=0;entryDy=0;entryPerimeter=0;" parent="1" source="vN5kve3PeMKoZxvb_3zb-142" target="EKBpt0zWMikfl3YGMHsi-178" edge="1">
          <mxGeometry relative="1" as="geometry">
            <Array as="points">
              <mxPoint x="-185" y="2060" />
              <mxPoint x="390" y="2060" />
              <mxPoint x="390" y="1870" />
              <mxPoint x="495" y="1870" />
            </Array>
            <mxPoint x="420" y="1870" as="targetPoint" />
          </mxGeometry>
        </mxCell>
        <mxCell id="vN5kve3PeMKoZxvb_3zb-142" value="fri_morning: Shift" style="swimlane;fontStyle=1;align=center;verticalAlign=middle;childLayout=stackLayout;horizontal=1;startSize=29;horizontalStack=0;resizeParent=1;resizeParentMax=0;resizeLast=0;collapsible=0;marginBottom=0;html=1;whiteSpace=wrap;" parent="1" vertex="1">
          <mxGeometry x="-300" y="2102" width="230" height="229" as="geometry" />
        </mxCell>
        <mxCell id="EKBpt0zWMikfl3YGMHsi-274" value="- store = &quot;Be&#39;er Sheva&quot;&amp;nbsp;" style="text;html=1;strokeColor=none;fillColor=none;align=left;verticalAlign=middle;spacingLeft=4;spacingRight=4;overflow=hidden;rotatable=0;points=[[0,0.5],[1,0.5]];portConstraint=eastwest;whiteSpace=wrap;" vertex="1" parent="vN5kve3PeMKoZxvb_3zb-142">
          <mxGeometry y="29" width="230" height="25" as="geometry" />
        </mxCell>
        <mxCell id="EKBpt0zWMikfl3YGMHsi-275" value="- start = 08:00" style="text;html=1;strokeColor=none;fillColor=none;align=left;verticalAlign=middle;spacingLeft=4;spacingRight=4;overflow=hidden;rotatable=0;points=[[0,0.5],[1,0.5]];portConstraint=eastwest;whiteSpace=wrap;" vertex="1" parent="vN5kve3PeMKoZxvb_3zb-142">
          <mxGeometry y="54" width="230" height="25" as="geometry" />
        </mxCell>
        <mxCell id="EKBpt0zWMikfl3YGMHsi-276" value="- end = 14:00&amp;nbsp;" style="text;html=1;strokeColor=none;fillColor=none;align=left;verticalAlign=middle;spacingLeft=4;spacingRight=4;overflow=hidden;rotatable=0;points=[[0,0.5],[1,0.5]];portConstraint=eastwest;whiteSpace=wrap;" vertex="1" parent="vN5kve3PeMKoZxvb_3zb-142">
          <mxGeometry y="79" width="230" height="25" as="geometry" />
        </mxCell>
        <mxCell id="EKBpt0zWMikfl3YGMHsi-277" value="- confirmed = false" style="text;html=1;strokeColor=none;fillColor=none;align=left;verticalAlign=middle;spacingLeft=4;spacingRight=4;overflow=hidden;rotatable=0;points=[[0,0.5],[1,0.5]];portConstraint=eastwest;whiteSpace=wrap;" vertex="1" parent="vN5kve3PeMKoZxvb_3zb-142">
          <mxGeometry y="104" width="230" height="25" as="geometry" />
        </mxCell>
        <mxCell id="EKBpt0zWMikfl3YGMHsi-278" value="- manager_constraints = ()" style="text;html=1;strokeColor=none;fillColor=none;align=left;verticalAlign=middle;spacingLeft=4;spacingRight=4;overflow=hidden;rotatable=0;points=[[0,0.5],[1,0.5]];portConstraint=eastwest;whiteSpace=wrap;" vertex="1" parent="vN5kve3PeMKoZxvb_3zb-142">
          <mxGeometry y="129" width="230" height="25" as="geometry" />
        </mxCell>
        <mxCell id="EKBpt0zWMikfl3YGMHsi-281" value="- employees = {}" style="text;html=1;strokeColor=none;fillColor=none;align=left;verticalAlign=middle;spacingLeft=4;spacingRight=4;overflow=hidden;rotatable=0;points=[[0,0.5],[1,0.5]];portConstraint=eastwest;whiteSpace=wrap;" vertex="1" parent="vN5kve3PeMKoZxvb_3zb-142">
          <mxGeometry y="154" width="230" height="25" as="geometry" />
        </mxCell>
        <mxCell id="EKBpt0zWMikfl3YGMHsi-280" value="- available_employees = ()" style="text;html=1;strokeColor=none;fillColor=none;align=left;verticalAlign=middle;spacingLeft=4;spacingRight=4;overflow=hidden;rotatable=0;points=[[0,0.5],[1,0.5]];portConstraint=eastwest;whiteSpace=wrap;" vertex="1" parent="vN5kve3PeMKoZxvb_3zb-142">
          <mxGeometry y="179" width="230" height="25" as="geometry" />
        </mxCell>
        <mxCell id="EKBpt0zWMikfl3YGMHsi-279" value="- product_canceling = {}" style="text;html=1;strokeColor=none;fillColor=none;align=left;verticalAlign=middle;spacingLeft=4;spacingRight=4;overflow=hidden;rotatable=0;points=[[0,0.5],[1,0.5]];portConstraint=eastwest;whiteSpace=wrap;" vertex="1" parent="vN5kve3PeMKoZxvb_3zb-142">
          <mxGeometry y="204" width="230" height="25" as="geometry" />
        </mxCell>
        <mxCell id="vN5kve3PeMKoZxvb_3zb-187" style="edgeStyle=orthogonalEdgeStyle;rounded=0;orthogonalLoop=1;jettySize=auto;html=1;exitX=0.5;exitY=0;exitDx=0;exitDy=0;entryX=0.119;entryY=1.071;entryDx=0;entryDy=0;endArrow=none;endFill=0;startArrow=open;startFill=0;entryPerimeter=0;" parent="1" source="vN5kve3PeMKoZxvb_3zb-149" target="EKBpt0zWMikfl3YGMHsi-178" edge="1">
          <mxGeometry relative="1" as="geometry">
            <Array as="points">
              <mxPoint x="75" y="2080" />
              <mxPoint x="410" y="2080" />
              <mxPoint x="410" y="1870" />
              <mxPoint x="497" y="1870" />
            </Array>
            <mxPoint x="420" y="1730" as="targetPoint" />
          </mxGeometry>
        </mxCell>
        <mxCell id="vN5kve3PeMKoZxvb_3zb-149" value="fri_evening: Shift" style="swimlane;fontStyle=1;align=center;verticalAlign=middle;childLayout=stackLayout;horizontal=1;startSize=29;horizontalStack=0;resizeParent=1;resizeParentMax=0;resizeLast=0;collapsible=0;marginBottom=0;html=1;whiteSpace=wrap;" parent="1" vertex="1">
          <mxGeometry x="-60" y="2102" width="270" height="229" as="geometry" />
        </mxCell>
        <mxCell id="EKBpt0zWMikfl3YGMHsi-318" value="- store = &quot;Be&#39;er Sheva&quot;&amp;nbsp;" style="text;html=1;strokeColor=none;fillColor=none;align=left;verticalAlign=middle;spacingLeft=4;spacingRight=4;overflow=hidden;rotatable=0;points=[[0,0.5],[1,0.5]];portConstraint=eastwest;whiteSpace=wrap;" vertex="1" parent="vN5kve3PeMKoZxvb_3zb-149">
          <mxGeometry y="29" width="270" height="25" as="geometry" />
        </mxCell>
        <mxCell id="EKBpt0zWMikfl3YGMHsi-312" value="- start = 14:00" style="text;html=1;strokeColor=none;fillColor=none;align=left;verticalAlign=middle;spacingLeft=4;spacingRight=4;overflow=hidden;rotatable=0;points=[[0,0.5],[1,0.5]];portConstraint=eastwest;whiteSpace=wrap;" vertex="1" parent="vN5kve3PeMKoZxvb_3zb-149">
          <mxGeometry y="54" width="270" height="25" as="geometry" />
        </mxCell>
        <mxCell id="EKBpt0zWMikfl3YGMHsi-313" value="- end = 22:00&amp;nbsp;" style="text;html=1;strokeColor=none;fillColor=none;align=left;verticalAlign=middle;spacingLeft=4;spacingRight=4;overflow=hidden;rotatable=0;points=[[0,0.5],[1,0.5]];portConstraint=eastwest;whiteSpace=wrap;" vertex="1" parent="vN5kve3PeMKoZxvb_3zb-149">
          <mxGeometry y="79" width="270" height="25" as="geometry" />
        </mxCell>
        <mxCell id="EKBpt0zWMikfl3YGMHsi-321" value="- confirmed = false" style="text;html=1;strokeColor=none;fillColor=none;align=left;verticalAlign=middle;spacingLeft=4;spacingRight=4;overflow=hidden;rotatable=0;points=[[0,0.5],[1,0.5]];portConstraint=eastwest;whiteSpace=wrap;" vertex="1" parent="vN5kve3PeMKoZxvb_3zb-149">
          <mxGeometry y="104" width="270" height="25" as="geometry" />
        </mxCell>
        <mxCell id="EKBpt0zWMikfl3YGMHsi-322" value="- manager_constraints = ()" style="text;html=1;strokeColor=none;fillColor=none;align=left;verticalAlign=middle;spacingLeft=4;spacingRight=4;overflow=hidden;rotatable=0;points=[[0,0.5],[1,0.5]];portConstraint=eastwest;whiteSpace=wrap;" vertex="1" parent="vN5kve3PeMKoZxvb_3zb-149">
          <mxGeometry y="129" width="270" height="25" as="geometry" />
        </mxCell>
        <mxCell id="EKBpt0zWMikfl3YGMHsi-323" value="- employees = {}" style="text;html=1;strokeColor=none;fillColor=none;align=left;verticalAlign=middle;spacingLeft=4;spacingRight=4;overflow=hidden;rotatable=0;points=[[0,0.5],[1,0.5]];portConstraint=eastwest;whiteSpace=wrap;" vertex="1" parent="vN5kve3PeMKoZxvb_3zb-149">
          <mxGeometry y="154" width="270" height="25" as="geometry" />
        </mxCell>
        <mxCell id="EKBpt0zWMikfl3YGMHsi-325" value="- product_canceling = {}" style="text;html=1;strokeColor=none;fillColor=none;align=left;verticalAlign=middle;spacingLeft=4;spacingRight=4;overflow=hidden;rotatable=0;points=[[0,0.5],[1,0.5]];portConstraint=eastwest;whiteSpace=wrap;" vertex="1" parent="vN5kve3PeMKoZxvb_3zb-149">
          <mxGeometry y="179" width="270" height="25" as="geometry" />
        </mxCell>
        <mxCell id="EKBpt0zWMikfl3YGMHsi-324" value="- available_employees = ()" style="text;html=1;strokeColor=none;fillColor=none;align=left;verticalAlign=middle;spacingLeft=4;spacingRight=4;overflow=hidden;rotatable=0;points=[[0,0.5],[1,0.5]];portConstraint=eastwest;whiteSpace=wrap;" vertex="1" parent="vN5kve3PeMKoZxvb_3zb-149">
          <mxGeometry y="204" width="270" height="25" as="geometry" />
        </mxCell>
        <mxCell id="vN5kve3PeMKoZxvb_3zb-192" style="edgeStyle=orthogonalEdgeStyle;rounded=0;orthogonalLoop=1;jettySize=auto;html=1;exitX=0.5;exitY=0;exitDx=0;exitDy=0;entryX=0.118;entryY=0.988;entryDx=0;entryDy=0;endArrow=none;endFill=0;startArrow=open;startFill=0;entryPerimeter=0;" parent="1" source="vN5kve3PeMKoZxvb_3zb-156" target="EKBpt0zWMikfl3YGMHsi-178" edge="1">
          <mxGeometry relative="1" as="geometry">
            <Array as="points">
              <mxPoint x="-425" y="2360" />
              <mxPoint x="300" y="2360" />
              <mxPoint x="300" y="2110" />
              <mxPoint x="497" y="2110" />
            </Array>
            <mxPoint x="420" y="1730" as="targetPoint" />
          </mxGeometry>
        </mxCell>
        <mxCell id="vN5kve3PeMKoZxvb_3zb-156" value="sat_morning: Shift" style="swimlane;fontStyle=1;align=center;verticalAlign=middle;childLayout=stackLayout;horizontal=1;startSize=29;horizontalStack=0;resizeParent=1;resizeParentMax=0;resizeLast=0;collapsible=0;marginBottom=0;html=1;whiteSpace=wrap;" parent="1" vertex="1">
          <mxGeometry x="-540" y="2397" width="230" height="229" as="geometry" />
        </mxCell>
        <mxCell id="EKBpt0zWMikfl3YGMHsi-290" value="- store = &quot;Be&#39;er Sheva&quot;&amp;nbsp;" style="text;html=1;strokeColor=none;fillColor=none;align=left;verticalAlign=middle;spacingLeft=4;spacingRight=4;overflow=hidden;rotatable=0;points=[[0,0.5],[1,0.5]];portConstraint=eastwest;whiteSpace=wrap;" vertex="1" parent="vN5kve3PeMKoZxvb_3zb-156">
          <mxGeometry y="29" width="230" height="25" as="geometry" />
        </mxCell>
        <mxCell id="EKBpt0zWMikfl3YGMHsi-291" value="- start = 08:00" style="text;html=1;strokeColor=none;fillColor=none;align=left;verticalAlign=middle;spacingLeft=4;spacingRight=4;overflow=hidden;rotatable=0;points=[[0,0.5],[1,0.5]];portConstraint=eastwest;whiteSpace=wrap;" vertex="1" parent="vN5kve3PeMKoZxvb_3zb-156">
          <mxGeometry y="54" width="230" height="25" as="geometry" />
        </mxCell>
        <mxCell id="EKBpt0zWMikfl3YGMHsi-292" value="- end = 14:00&amp;nbsp;" style="text;html=1;strokeColor=none;fillColor=none;align=left;verticalAlign=middle;spacingLeft=4;spacingRight=4;overflow=hidden;rotatable=0;points=[[0,0.5],[1,0.5]];portConstraint=eastwest;whiteSpace=wrap;" vertex="1" parent="vN5kve3PeMKoZxvb_3zb-156">
          <mxGeometry y="79" width="230" height="25" as="geometry" />
        </mxCell>
        <mxCell id="EKBpt0zWMikfl3YGMHsi-293" value="- confirmed = false" style="text;html=1;strokeColor=none;fillColor=none;align=left;verticalAlign=middle;spacingLeft=4;spacingRight=4;overflow=hidden;rotatable=0;points=[[0,0.5],[1,0.5]];portConstraint=eastwest;whiteSpace=wrap;" vertex="1" parent="vN5kve3PeMKoZxvb_3zb-156">
          <mxGeometry y="104" width="230" height="25" as="geometry" />
        </mxCell>
        <mxCell id="EKBpt0zWMikfl3YGMHsi-294" value="- manager_constraints = ()" style="text;html=1;strokeColor=none;fillColor=none;align=left;verticalAlign=middle;spacingLeft=4;spacingRight=4;overflow=hidden;rotatable=0;points=[[0,0.5],[1,0.5]];portConstraint=eastwest;whiteSpace=wrap;" vertex="1" parent="vN5kve3PeMKoZxvb_3zb-156">
          <mxGeometry y="129" width="230" height="25" as="geometry" />
        </mxCell>
        <mxCell id="EKBpt0zWMikfl3YGMHsi-297" value="- employees = {}" style="text;html=1;strokeColor=none;fillColor=none;align=left;verticalAlign=middle;spacingLeft=4;spacingRight=4;overflow=hidden;rotatable=0;points=[[0,0.5],[1,0.5]];portConstraint=eastwest;whiteSpace=wrap;" vertex="1" parent="vN5kve3PeMKoZxvb_3zb-156">
          <mxGeometry y="154" width="230" height="25" as="geometry" />
        </mxCell>
        <mxCell id="EKBpt0zWMikfl3YGMHsi-296" value="- available_employees = ()" style="text;html=1;strokeColor=none;fillColor=none;align=left;verticalAlign=middle;spacingLeft=4;spacingRight=4;overflow=hidden;rotatable=0;points=[[0,0.5],[1,0.5]];portConstraint=eastwest;whiteSpace=wrap;" vertex="1" parent="vN5kve3PeMKoZxvb_3zb-156">
          <mxGeometry y="179" width="230" height="25" as="geometry" />
        </mxCell>
        <mxCell id="EKBpt0zWMikfl3YGMHsi-295" value="- product_canceling = {}" style="text;html=1;strokeColor=none;fillColor=none;align=left;verticalAlign=middle;spacingLeft=4;spacingRight=4;overflow=hidden;rotatable=0;points=[[0,0.5],[1,0.5]];portConstraint=eastwest;whiteSpace=wrap;" vertex="1" parent="vN5kve3PeMKoZxvb_3zb-156">
          <mxGeometry y="204" width="230" height="25" as="geometry" />
        </mxCell>
        <mxCell id="vN5kve3PeMKoZxvb_3zb-191" style="edgeStyle=orthogonalEdgeStyle;rounded=0;orthogonalLoop=1;jettySize=auto;html=1;exitX=0.5;exitY=0;exitDx=0;exitDy=0;endArrow=none;endFill=0;startArrow=open;startFill=0;entryX=0.116;entryY=0.988;entryDx=0;entryDy=0;entryPerimeter=0;" parent="1" source="vN5kve3PeMKoZxvb_3zb-163" target="EKBpt0zWMikfl3YGMHsi-178" edge="1">
          <mxGeometry relative="1" as="geometry">
            <Array as="points">
              <mxPoint x="-155" y="2370" />
              <mxPoint x="320" y="2370" />
              <mxPoint x="320" y="2110" />
              <mxPoint x="495" y="2110" />
            </Array>
            <mxPoint x="420" y="1550" as="targetPoint" />
          </mxGeometry>
        </mxCell>
        <mxCell id="vN5kve3PeMKoZxvb_3zb-163" value="sat_evening: Shift" style="swimlane;fontStyle=1;align=center;verticalAlign=middle;childLayout=stackLayout;horizontal=1;startSize=29;horizontalStack=0;resizeParent=1;resizeParentMax=0;resizeLast=0;collapsible=0;marginBottom=0;html=1;whiteSpace=wrap;" parent="1" vertex="1">
          <mxGeometry x="-300" y="2397" width="290" height="229" as="geometry" />
        </mxCell>
        <mxCell id="EKBpt0zWMikfl3YGMHsi-298" value="- store = &quot;Be&#39;er Sheva&quot;&amp;nbsp;" style="text;html=1;strokeColor=none;fillColor=none;align=left;verticalAlign=middle;spacingLeft=4;spacingRight=4;overflow=hidden;rotatable=0;points=[[0,0.5],[1,0.5]];portConstraint=eastwest;whiteSpace=wrap;" vertex="1" parent="vN5kve3PeMKoZxvb_3zb-163">
          <mxGeometry y="29" width="290" height="25" as="geometry" />
        </mxCell>
        <mxCell id="EKBpt0zWMikfl3YGMHsi-316" value="- start = 14:00" style="text;html=1;strokeColor=none;fillColor=none;align=left;verticalAlign=middle;spacingLeft=4;spacingRight=4;overflow=hidden;rotatable=0;points=[[0,0.5],[1,0.5]];portConstraint=eastwest;whiteSpace=wrap;" vertex="1" parent="vN5kve3PeMKoZxvb_3zb-163">
          <mxGeometry y="54" width="290" height="25" as="geometry" />
        </mxCell>
        <mxCell id="EKBpt0zWMikfl3YGMHsi-317" value="- end = 22:00&amp;nbsp;" style="text;html=1;strokeColor=none;fillColor=none;align=left;verticalAlign=middle;spacingLeft=4;spacingRight=4;overflow=hidden;rotatable=0;points=[[0,0.5],[1,0.5]];portConstraint=eastwest;whiteSpace=wrap;" vertex="1" parent="vN5kve3PeMKoZxvb_3zb-163">
          <mxGeometry y="79" width="290" height="25" as="geometry" />
        </mxCell>
        <mxCell id="EKBpt0zWMikfl3YGMHsi-301" value="- confirmed = false" style="text;html=1;strokeColor=none;fillColor=none;align=left;verticalAlign=middle;spacingLeft=4;spacingRight=4;overflow=hidden;rotatable=0;points=[[0,0.5],[1,0.5]];portConstraint=eastwest;whiteSpace=wrap;" vertex="1" parent="vN5kve3PeMKoZxvb_3zb-163">
          <mxGeometry y="104" width="290" height="25" as="geometry" />
        </mxCell>
        <mxCell id="EKBpt0zWMikfl3YGMHsi-302" value="- manager_constraints = ()" style="text;html=1;strokeColor=none;fillColor=none;align=left;verticalAlign=middle;spacingLeft=4;spacingRight=4;overflow=hidden;rotatable=0;points=[[0,0.5],[1,0.5]];portConstraint=eastwest;whiteSpace=wrap;" vertex="1" parent="vN5kve3PeMKoZxvb_3zb-163">
          <mxGeometry y="129" width="290" height="25" as="geometry" />
        </mxCell>
        <mxCell id="EKBpt0zWMikfl3YGMHsi-305" value="- employees = {}" style="text;html=1;strokeColor=none;fillColor=none;align=left;verticalAlign=middle;spacingLeft=4;spacingRight=4;overflow=hidden;rotatable=0;points=[[0,0.5],[1,0.5]];portConstraint=eastwest;whiteSpace=wrap;" vertex="1" parent="vN5kve3PeMKoZxvb_3zb-163">
          <mxGeometry y="154" width="290" height="25" as="geometry" />
        </mxCell>
        <mxCell id="EKBpt0zWMikfl3YGMHsi-304" value="- available_employees = ()" style="text;html=1;strokeColor=none;fillColor=none;align=left;verticalAlign=middle;spacingLeft=4;spacingRight=4;overflow=hidden;rotatable=0;points=[[0,0.5],[1,0.5]];portConstraint=eastwest;whiteSpace=wrap;" vertex="1" parent="vN5kve3PeMKoZxvb_3zb-163">
          <mxGeometry y="179" width="290" height="25" as="geometry" />
        </mxCell>
        <mxCell id="EKBpt0zWMikfl3YGMHsi-303" value="- product_canceling = {}" style="text;html=1;strokeColor=none;fillColor=none;align=left;verticalAlign=middle;spacingLeft=4;spacingRight=4;overflow=hidden;rotatable=0;points=[[0,0.5],[1,0.5]];portConstraint=eastwest;whiteSpace=wrap;" vertex="1" parent="vN5kve3PeMKoZxvb_3zb-163">
          <mxGeometry y="204" width="290" height="25" as="geometry" />
        </mxCell>
        <mxCell id="vN5kve3PeMKoZxvb_3zb-195" value="&lt;p dir=&quot;RTL&quot; class=&quot;MsoNormal&quot;&gt;&lt;b&gt;&lt;font style=&quot;font-size: 18px;&quot;&gt;תרחיש 1:&lt;/font&gt;&lt;/b&gt;&lt;/p&gt;&lt;p dir=&quot;RTL&quot; class=&quot;MsoNormal&quot;&gt;&lt;span lang=&quot;HE&quot;&gt;עובד חדש התקבל לחברה ע&quot;י מנהל כוח האדם - גיא כהן.&amp;nbsp;&lt;/span&gt;&lt;/p&gt;&lt;p dir=&quot;RTL&quot; class=&quot;MsoNormal&quot;&gt;&lt;span lang=&quot;HE&quot;&gt;&lt;u&gt;פרטי מנהל כוח האדם&lt;/u&gt;:&lt;/span&gt;&lt;/p&gt;&lt;p dir=&quot;RTL&quot; class=&quot;MsoNormal&quot;&gt;&lt;span lang=&quot;HE&quot;&gt;ת.ז: 111111111&lt;br style=&quot;border-color: var(--border-color);&quot;&gt;&lt;span style=&quot;border-color: var(--border-color); background-color: initial;&quot;&gt;חשבון בנק:&amp;nbsp;&lt;/span&gt;1236985&lt;br style=&quot;border-color: var(--border-color);&quot;&gt;&lt;span style=&quot;border-color: var(--border-color); background-color: initial;&quot;&gt;תאריך תחילת העסקה: 01/01/2023&lt;/span&gt;&lt;br style=&quot;border-color: var(--border-color);&quot;&gt;&lt;span style=&quot;border-color: var(--border-color); background-color: initial;&quot;&gt;תנאי העסקה: אין&lt;/span&gt;&lt;br style=&quot;border-color: var(--border-color);&quot;&gt;&lt;span style=&quot;border-color: var(--border-color); background-color: initial;&quot;&gt;מצב משפחתי: נשוי&lt;/span&gt;&lt;br style=&quot;border-color: var(--border-color);&quot;&gt;&lt;span style=&quot;border-color: var(--border-color); background-color: initial;&quot;&gt;סטודנט / לא סטודנט: לא סטודנט&lt;/span&gt;&lt;br style=&quot;border-color: var(--border-color);&quot;&gt;&lt;span style=&quot;border-color: var(--border-color); background-color: initial;&quot;&gt;שכר: 60 לשעה&lt;/span&gt;&lt;br&gt;&lt;/span&gt;&lt;/p&gt;&lt;p dir=&quot;RTL&quot; class=&quot;MsoNormal&quot;&gt;&lt;span lang=&quot;HE&quot;&gt;&amp;nbsp;&lt;u&gt;פרטי העובד&lt;/u&gt;:&lt;/span&gt;&lt;/p&gt;&lt;span style=&quot;background-color: initial;&quot;&gt;שם: רון חדד&lt;/span&gt;&lt;br&gt;&lt;span style=&quot;background-color: initial;&quot;&gt;ת.ז: 123456789&lt;/span&gt;&lt;br&gt;&lt;span style=&quot;background-color: initial;&quot;&gt;חשבון בנק:&amp;nbsp;&lt;/span&gt;818183&lt;br&gt;&lt;span style=&quot;background-color: initial;&quot;&gt;תאריך תחילת העסקה: 27/03/2023&lt;/span&gt;&lt;br&gt;&lt;span style=&quot;background-color: initial;&quot;&gt;תנאי העסקה: אין&lt;/span&gt;&lt;br&gt;&lt;span style=&quot;background-color: initial;&quot;&gt;מצב משפחתי: רווק&lt;/span&gt;&lt;br&gt;&lt;span style=&quot;background-color: initial;&quot;&gt;סטודנט / לא סטודנט: סטודנט&lt;/span&gt;&lt;br&gt;&lt;span style=&quot;background-color: initial;&quot;&gt;שכר: 30 לשעה&lt;/span&gt;&lt;br&gt;&lt;span style=&quot;background-color: initial;&quot;&gt;&amp;nbsp;&lt;/span&gt;&lt;br&gt;&lt;span style=&quot;background-color: initial;&quot;&gt;.העובד הנ&quot;ל עבר הסכמה לתפקיד מחסנאי וקופאי&lt;br&gt;.בנוסף, העובד מוסמך לעבוד בסניף באר שבע בלבד&lt;br&gt;&lt;/span&gt;" style="text;html=1;align=center;verticalAlign=middle;resizable=0;points=[];autosize=1;strokeColor=none;fillColor=none;" parent="1" vertex="1">
          <mxGeometry x="1510" y="55" width="290" height="410" as="geometry" />
        </mxCell>
        <mxCell id="vN5kve3PeMKoZxvb_3zb-260" value="&lt;p dir=&quot;RTL&quot; class=&quot;MsoNormal&quot;&gt;&lt;span lang=&quot;HE&quot;&gt;&lt;u&gt;פרטי מנהל כוח האדם&lt;/u&gt;:&lt;/span&gt;&lt;/p&gt;&lt;p dir=&quot;RTL&quot; class=&quot;MsoNormal&quot;&gt;&lt;span lang=&quot;HE&quot;&gt;שם: גיא כהן&lt;br&gt;ת.ז: 111111111&lt;br style=&quot;border-color: var(--border-color);&quot;&gt;&lt;span style=&quot;border-color: var(--border-color); background-color: initial;&quot;&gt;חשבון בנק:&amp;nbsp;&lt;/span&gt;1236985&lt;br style=&quot;border-color: var(--border-color);&quot;&gt;&lt;span style=&quot;border-color: var(--border-color); background-color: initial;&quot;&gt;תאריך תחילת העסקה: 01/01/2023&lt;/span&gt;&lt;br style=&quot;border-color: var(--border-color);&quot;&gt;&lt;span style=&quot;border-color: var(--border-color); background-color: initial;&quot;&gt;תנאי העסקה: אין&lt;/span&gt;&lt;br style=&quot;border-color: var(--border-color);&quot;&gt;&lt;span style=&quot;border-color: var(--border-color); background-color: initial;&quot;&gt;מצב משפחתי: נשוי&lt;/span&gt;&lt;br style=&quot;border-color: var(--border-color);&quot;&gt;&lt;span style=&quot;border-color: var(--border-color); background-color: initial;&quot;&gt;סטודנט / לא סטודנט: לא סטודנט&lt;/span&gt;&lt;br style=&quot;border-color: var(--border-color);&quot;&gt;&lt;span style=&quot;border-color: var(--border-color); background-color: initial;&quot;&gt;שכר: 60 לשעה&lt;/span&gt;&lt;/span&gt;&lt;/p&gt;&lt;span style=&quot;background-color: initial;&quot;&gt;&lt;br&gt;&lt;/span&gt;" style="text;html=1;align=center;verticalAlign=middle;resizable=0;points=[];autosize=1;strokeColor=none;fillColor=none;" parent="1" vertex="1">
          <mxGeometry x="1870" y="590" width="190" height="190" as="geometry" />
        </mxCell>
        <mxCell id="vN5kve3PeMKoZxvb_3zb-261" value="&lt;p style=&quot;border-color: var(--border-color);&quot; dir=&quot;RTL&quot; class=&quot;MsoNormal&quot;&gt;&lt;u style=&quot;border-color: var(--border-color);&quot;&gt;פרטי העובד&lt;/u&gt;:&lt;/p&gt;&lt;span style=&quot;border-color: var(--border-color); background-color: initial;&quot;&gt;שם: רון חדד&lt;/span&gt;&lt;br style=&quot;border-color: var(--border-color);&quot;&gt;&lt;span style=&quot;border-color: var(--border-color); background-color: initial;&quot;&gt;ת.ז: 123456789&lt;/span&gt;&lt;br style=&quot;border-color: var(--border-color);&quot;&gt;&lt;span style=&quot;border-color: var(--border-color); background-color: initial;&quot;&gt;חשבון בנק:&amp;nbsp;&lt;/span&gt;818183&lt;br style=&quot;border-color: var(--border-color);&quot;&gt;&lt;span style=&quot;border-color: var(--border-color); background-color: initial;&quot;&gt;תאריך תחילת העסקה: 27/03/2023&lt;/span&gt;&lt;br style=&quot;border-color: var(--border-color);&quot;&gt;&lt;span style=&quot;border-color: var(--border-color); background-color: initial;&quot;&gt;תנאי העסקה: אין&lt;/span&gt;&lt;br style=&quot;border-color: var(--border-color);&quot;&gt;&lt;span style=&quot;border-color: var(--border-color); background-color: initial;&quot;&gt;מצב משפחתי: רווק&lt;/span&gt;&lt;br style=&quot;border-color: var(--border-color);&quot;&gt;&lt;span style=&quot;border-color: var(--border-color); background-color: initial;&quot;&gt;סטודנט / לא סטודנט: סטודנט&lt;/span&gt;&lt;br style=&quot;border-color: var(--border-color);&quot;&gt;&lt;span style=&quot;border-color: var(--border-color); background-color: initial;&quot;&gt;שכר: 30 לשעה&lt;/span&gt;" style="text;html=1;align=center;verticalAlign=middle;resizable=0;points=[];autosize=1;strokeColor=none;fillColor=none;" parent="1" vertex="1">
          <mxGeometry x="1680" y="590" width="190" height="170" as="geometry" />
        </mxCell>
        <mxCell id="vN5kve3PeMKoZxvb_3zb-262" value="&lt;p style=&quot;border-color: var(--border-color);&quot; dir=&quot;RTL&quot; class=&quot;MsoNormal&quot;&gt;&lt;b style=&quot;border-color: var(--border-color);&quot;&gt;&lt;font style=&quot;border-color: var(--border-color); font-size: 18px;&quot;&gt;תרחיש 2:&lt;/font&gt;&lt;/b&gt;&lt;/p&gt;&lt;p style=&quot;border-color: var(--border-color);&quot; dir=&quot;RTL&quot; class=&quot;MsoNormal&quot;&gt;עובד חדש התקבל לחברה ע&quot;י מנהל כוח האדם - גיא כהן.&amp;nbsp;&lt;/p&gt;" style="text;html=1;align=center;verticalAlign=middle;resizable=0;points=[];autosize=1;strokeColor=none;fillColor=none;" parent="1" vertex="1">
          <mxGeometry x="1730" y="530" width="290" height="90" as="geometry" />
        </mxCell>
        <mxCell id="vN5kve3PeMKoZxvb_3zb-263" value=".העובד הנ&quot;ל עבר הסכמה לתפקיד מחסנאי וקופאי&lt;br style=&quot;border-color: var(--border-color);&quot;&gt;.בנוסף, העובד מוסמך לעבוד בסניף באר שבע בלבד&lt;br style=&quot;border-color: var(--border-color);&quot;&gt;&lt;br style=&quot;border-color: var(--border-color);&quot;&gt;:העובד רון חדד הגיש זמינות למשמרות בסניף באר שבע&lt;br style=&quot;border-color: var(--border-color);&quot;&gt;יום ראשון - בוקר + ערב&lt;br style=&quot;border-color: var(--border-color);&quot;&gt;יום רביעי - ערב&lt;br style=&quot;border-color: var(--border-color);&quot;&gt;יום חמישי - בוקר&lt;br style=&quot;border-color: var(--border-color);&quot;&gt;&lt;br style=&quot;border-color: var(--border-color);&quot;&gt;&lt;font style=&quot;border-color: var(--border-color);&quot;&gt;המנהל כוח אדם, גיא כהן, החליט לשבץ אותו ביום ראשון בבוקר בתפקיד קופאי&lt;br style=&quot;border-color: var(--border-color);&quot;&gt;וביום רביעי בערב בתפקיד מחסנאי&lt;/font&gt;" style="text;html=1;align=center;verticalAlign=middle;resizable=0;points=[];autosize=1;strokeColor=none;fillColor=none;" parent="1" vertex="1">
          <mxGeometry x="1685" y="760" width="380" height="160" as="geometry" />
        </mxCell>
        <mxCell id="vN5kve3PeMKoZxvb_3zb-265" value="" style="endArrow=none;html=1;rounded=0;" parent="1" edge="1">
          <mxGeometry width="50" height="50" relative="1" as="geometry">
            <mxPoint x="-790" y="520" as="sourcePoint" />
            <mxPoint x="2090" y="520" as="targetPoint" />
          </mxGeometry>
        </mxCell>
        <mxCell id="EKBpt0zWMikfl3YGMHsi-7" value="GuyCohen: Employee" style="swimlane;fontStyle=1;align=center;verticalAlign=middle;childLayout=stackLayout;horizontal=1;startSize=29;horizontalStack=0;resizeParent=1;resizeParentMax=0;resizeLast=0;collapsible=0;marginBottom=0;html=1;whiteSpace=wrap;" vertex="1" parent="1">
          <mxGeometry x="-10" y="790" width="470" height="329" as="geometry" />
        </mxCell>
        <mxCell id="EKBpt0zWMikfl3YGMHsi-8" value="- name = &quot;Guy Cohen&quot;" style="text;html=1;strokeColor=none;fillColor=none;align=left;verticalAlign=middle;spacingLeft=4;spacingRight=4;overflow=hidden;rotatable=0;points=[[0,0.5],[1,0.5]];portConstraint=eastwest;whiteSpace=wrap;" vertex="1" parent="EKBpt0zWMikfl3YGMHsi-7">
          <mxGeometry y="29" width="470" height="25" as="geometry" />
        </mxCell>
        <mxCell id="EKBpt0zWMikfl3YGMHsi-9" value="- id = 111111111" style="text;html=1;strokeColor=none;fillColor=none;align=left;verticalAlign=middle;spacingLeft=4;spacingRight=4;overflow=hidden;rotatable=0;points=[[0,0.5],[1,0.5]];portConstraint=eastwest;whiteSpace=wrap;" vertex="1" parent="EKBpt0zWMikfl3YGMHsi-7">
          <mxGeometry y="54" width="470" height="25" as="geometry" />
        </mxCell>
        <mxCell id="EKBpt0zWMikfl3YGMHsi-10" value="- bank_account = 1236985" style="text;html=1;strokeColor=none;fillColor=none;align=left;verticalAlign=middle;spacingLeft=4;spacingRight=4;overflow=hidden;rotatable=0;points=[[0,0.5],[1,0.5]];portConstraint=eastwest;whiteSpace=wrap;" vertex="1" parent="EKBpt0zWMikfl3YGMHsi-7">
          <mxGeometry y="79" width="470" height="25" as="geometry" />
        </mxCell>
        <mxCell id="EKBpt0zWMikfl3YGMHsi-11" value="- salary = 60" style="text;html=1;strokeColor=none;fillColor=none;align=left;verticalAlign=middle;spacingLeft=4;spacingRight=4;overflow=hidden;rotatable=0;points=[[0,0.5],[1,0.5]];portConstraint=eastwest;whiteSpace=wrap;" vertex="1" parent="EKBpt0zWMikfl3YGMHsi-7">
          <mxGeometry y="104" width="470" height="25" as="geometry" />
        </mxCell>
        <mxCell id="EKBpt0zWMikfl3YGMHsi-12" value="- family_status = MARRIED&amp;nbsp;" style="text;html=1;strokeColor=none;fillColor=none;align=left;verticalAlign=middle;spacingLeft=4;spacingRight=4;overflow=hidden;rotatable=0;points=[[0,0.5],[1,0.5]];portConstraint=eastwest;whiteSpace=wrap;" vertex="1" parent="EKBpt0zWMikfl3YGMHsi-7">
          <mxGeometry y="129" width="470" height="25" as="geometry" />
        </mxCell>
        <mxCell id="EKBpt0zWMikfl3YGMHsi-13" value="- is_student = false" style="text;html=1;strokeColor=none;fillColor=none;align=left;verticalAlign=middle;spacingLeft=4;spacingRight=4;overflow=hidden;rotatable=0;points=[[0,0.5],[1,0.5]];portConstraint=eastwest;whiteSpace=wrap;" vertex="1" parent="EKBpt0zWMikfl3YGMHsi-7">
          <mxGeometry y="154" width="470" height="25" as="geometry" />
        </mxCell>
        <mxCell id="EKBpt0zWMikfl3YGMHsi-14" value="- terms_of_employment = &quot;none&quot;&amp;nbsp;" style="text;html=1;strokeColor=none;fillColor=none;align=left;verticalAlign=middle;spacingLeft=4;spacingRight=4;overflow=hidden;rotatable=0;points=[[0,0.5],[1,0.5]];portConstraint=eastwest;whiteSpace=wrap;" vertex="1" parent="EKBpt0zWMikfl3YGMHsi-7">
          <mxGeometry y="179" width="470" height="25" as="geometry" />
        </mxCell>
        <mxCell id="EKBpt0zWMikfl3YGMHsi-15" value="- employment_start_date = 01-01-2023&amp;nbsp;" style="text;html=1;strokeColor=none;fillColor=none;align=left;verticalAlign=middle;spacingLeft=4;spacingRight=4;overflow=hidden;rotatable=0;points=[[0,0.5],[1,0.5]];portConstraint=eastwest;whiteSpace=wrap;" vertex="1" parent="EKBpt0zWMikfl3YGMHsi-7">
          <mxGeometry y="204" width="470" height="25" as="geometry" />
        </mxCell>
        <mxCell id="EKBpt0zWMikfl3YGMHsi-16" value="- certified_stores&amp;nbsp;= { [&quot;Be&#39;er Sheva&quot;, Be&#39;er Sheva] }" style="text;html=1;strokeColor=none;fillColor=none;align=left;verticalAlign=middle;spacingLeft=4;spacingRight=4;overflow=hidden;rotatable=0;points=[[0,0.5],[1,0.5]];portConstraint=eastwest;whiteSpace=wrap;" vertex="1" parent="EKBpt0zWMikfl3YGMHsi-7">
          <mxGeometry y="229" width="470" height="25" as="geometry" />
        </mxCell>
        <mxCell id="EKBpt0zWMikfl3YGMHsi-17" value="- roles = (HRMANAGER)" style="text;html=1;strokeColor=none;fillColor=none;align=left;verticalAlign=middle;spacingLeft=4;spacingRight=4;overflow=hidden;rotatable=0;points=[[0,0.5],[1,0.5]];portConstraint=eastwest;whiteSpace=wrap;" vertex="1" parent="EKBpt0zWMikfl3YGMHsi-7">
          <mxGeometry y="254" width="470" height="25" as="geometry" />
        </mxCell>
        <mxCell id="EKBpt0zWMikfl3YGMHsi-18" value="-&amp;nbsp;current_total_salary = 0" style="text;html=1;strokeColor=none;fillColor=none;align=left;verticalAlign=middle;spacingLeft=4;spacingRight=4;overflow=hidden;rotatable=0;points=[[0,0.5],[1,0.5]];portConstraint=eastwest;whiteSpace=wrap;" vertex="1" parent="EKBpt0zWMikfl3YGMHsi-7">
          <mxGeometry y="279" width="470" height="25" as="geometry" />
        </mxCell>
        <mxCell id="EKBpt0zWMikfl3YGMHsi-19" value="-&amp;nbsp;monthly_salary = 0" style="text;html=1;strokeColor=none;fillColor=none;align=left;verticalAlign=middle;spacingLeft=4;spacingRight=4;overflow=hidden;rotatable=0;points=[[0,0.5],[1,0.5]];portConstraint=eastwest;whiteSpace=wrap;" vertex="1" parent="EKBpt0zWMikfl3YGMHsi-7">
          <mxGeometry y="304" width="470" height="25" as="geometry" />
        </mxCell>
        <mxCell id="EKBpt0zWMikfl3YGMHsi-21" value="RonHadad: Employee" style="swimlane;fontStyle=1;align=center;verticalAlign=middle;childLayout=stackLayout;horizontal=1;startSize=29;horizontalStack=0;resizeParent=1;resizeParentMax=0;resizeLast=0;collapsible=0;marginBottom=0;html=1;whiteSpace=wrap;" vertex="1" parent="1">
          <mxGeometry x="1340" y="749" width="300" height="329" as="geometry" />
        </mxCell>
        <mxCell id="EKBpt0zWMikfl3YGMHsi-22" value="- name = &quot;Ron Hadad&quot;" style="text;html=1;strokeColor=none;fillColor=none;align=left;verticalAlign=middle;spacingLeft=4;spacingRight=4;overflow=hidden;rotatable=0;points=[[0,0.5],[1,0.5]];portConstraint=eastwest;whiteSpace=wrap;" vertex="1" parent="EKBpt0zWMikfl3YGMHsi-21">
          <mxGeometry y="29" width="300" height="25" as="geometry" />
        </mxCell>
        <mxCell id="EKBpt0zWMikfl3YGMHsi-23" value="- id = 123456789&amp;nbsp;" style="text;html=1;strokeColor=none;fillColor=none;align=left;verticalAlign=middle;spacingLeft=4;spacingRight=4;overflow=hidden;rotatable=0;points=[[0,0.5],[1,0.5]];portConstraint=eastwest;whiteSpace=wrap;" vertex="1" parent="EKBpt0zWMikfl3YGMHsi-21">
          <mxGeometry y="54" width="300" height="25" as="geometry" />
        </mxCell>
        <mxCell id="EKBpt0zWMikfl3YGMHsi-24" value="- bank_account = 818183" style="text;html=1;strokeColor=none;fillColor=none;align=left;verticalAlign=middle;spacingLeft=4;spacingRight=4;overflow=hidden;rotatable=0;points=[[0,0.5],[1,0.5]];portConstraint=eastwest;whiteSpace=wrap;" vertex="1" parent="EKBpt0zWMikfl3YGMHsi-21">
          <mxGeometry y="79" width="300" height="25" as="geometry" />
        </mxCell>
        <mxCell id="EKBpt0zWMikfl3YGMHsi-25" value="- salary = 30" style="text;html=1;strokeColor=none;fillColor=none;align=left;verticalAlign=middle;spacingLeft=4;spacingRight=4;overflow=hidden;rotatable=0;points=[[0,0.5],[1,0.5]];portConstraint=eastwest;whiteSpace=wrap;" vertex="1" parent="EKBpt0zWMikfl3YGMHsi-21">
          <mxGeometry y="104" width="300" height="25" as="geometry" />
        </mxCell>
        <mxCell id="EKBpt0zWMikfl3YGMHsi-26" value="- family_status = SINGLE" style="text;html=1;strokeColor=none;fillColor=none;align=left;verticalAlign=middle;spacingLeft=4;spacingRight=4;overflow=hidden;rotatable=0;points=[[0,0.5],[1,0.5]];portConstraint=eastwest;whiteSpace=wrap;" vertex="1" parent="EKBpt0zWMikfl3YGMHsi-21">
          <mxGeometry y="129" width="300" height="25" as="geometry" />
        </mxCell>
        <mxCell id="EKBpt0zWMikfl3YGMHsi-27" value="- is_student = true" style="text;html=1;strokeColor=none;fillColor=none;align=left;verticalAlign=middle;spacingLeft=4;spacingRight=4;overflow=hidden;rotatable=0;points=[[0,0.5],[1,0.5]];portConstraint=eastwest;whiteSpace=wrap;" vertex="1" parent="EKBpt0zWMikfl3YGMHsi-21">
          <mxGeometry y="154" width="300" height="25" as="geometry" />
        </mxCell>
        <mxCell id="EKBpt0zWMikfl3YGMHsi-28" value="- terms_of_employment = &quot;none&quot;&amp;nbsp;" style="text;html=1;strokeColor=none;fillColor=none;align=left;verticalAlign=middle;spacingLeft=4;spacingRight=4;overflow=hidden;rotatable=0;points=[[0,0.5],[1,0.5]];portConstraint=eastwest;whiteSpace=wrap;" vertex="1" parent="EKBpt0zWMikfl3YGMHsi-21">
          <mxGeometry y="179" width="300" height="25" as="geometry" />
        </mxCell>
        <mxCell id="EKBpt0zWMikfl3YGMHsi-29" value="- employment_start_date = 27-03-2023&amp;nbsp;" style="text;html=1;strokeColor=none;fillColor=none;align=left;verticalAlign=middle;spacingLeft=4;spacingRight=4;overflow=hidden;rotatable=0;points=[[0,0.5],[1,0.5]];portConstraint=eastwest;whiteSpace=wrap;" vertex="1" parent="EKBpt0zWMikfl3YGMHsi-21">
          <mxGeometry y="204" width="300" height="25" as="geometry" />
        </mxCell>
        <mxCell id="EKBpt0zWMikfl3YGMHsi-30" value="- certified_stores = {[&quot;Be&#39;er Sheva&quot;, Be&#39;er Sheva]}" style="text;html=1;strokeColor=none;fillColor=none;align=left;verticalAlign=middle;spacingLeft=4;spacingRight=4;overflow=hidden;rotatable=0;points=[[0,0.5],[1,0.5]];portConstraint=eastwest;whiteSpace=wrap;" vertex="1" parent="EKBpt0zWMikfl3YGMHsi-21">
          <mxGeometry y="229" width="300" height="25" as="geometry" />
        </mxCell>
        <mxCell id="EKBpt0zWMikfl3YGMHsi-31" value="- roles = (CASHIER, STOREKEEPER)" style="text;html=1;strokeColor=none;fillColor=none;align=left;verticalAlign=middle;spacingLeft=4;spacingRight=4;overflow=hidden;rotatable=0;points=[[0,0.5],[1,0.5]];portConstraint=eastwest;whiteSpace=wrap;" vertex="1" parent="EKBpt0zWMikfl3YGMHsi-21">
          <mxGeometry y="254" width="300" height="25" as="geometry" />
        </mxCell>
        <mxCell id="EKBpt0zWMikfl3YGMHsi-32" value="-&amp;nbsp;current_total_salary = 0" style="text;html=1;strokeColor=none;fillColor=none;align=left;verticalAlign=middle;spacingLeft=4;spacingRight=4;overflow=hidden;rotatable=0;points=[[0,0.5],[1,0.5]];portConstraint=eastwest;whiteSpace=wrap;" vertex="1" parent="EKBpt0zWMikfl3YGMHsi-21">
          <mxGeometry y="279" width="300" height="25" as="geometry" />
        </mxCell>
        <mxCell id="EKBpt0zWMikfl3YGMHsi-33" value="-&amp;nbsp;monthly_salary = 0" style="text;html=1;strokeColor=none;fillColor=none;align=left;verticalAlign=middle;spacingLeft=4;spacingRight=4;overflow=hidden;rotatable=0;points=[[0,0.5],[1,0.5]];portConstraint=eastwest;whiteSpace=wrap;" vertex="1" parent="EKBpt0zWMikfl3YGMHsi-21">
          <mxGeometry y="304" width="300" height="25" as="geometry" />
        </mxCell>
        <mxCell id="EKBpt0zWMikfl3YGMHsi-34" value="employeeController: EmployeeController" style="swimlane;fontStyle=1;align=center;verticalAlign=middle;childLayout=stackLayout;horizontal=1;startSize=29;horizontalStack=0;resizeParent=1;resizeParentMax=0;resizeLast=0;collapsible=0;marginBottom=0;html=1;whiteSpace=wrap;" vertex="1" parent="1">
          <mxGeometry x="530" y="960" width="300" height="225" as="geometry" />
        </mxCell>
        <mxCell id="EKBpt0zWMikfl3YGMHsi-35" value="- login_info = {&lt;br&gt;[111111111, &quot;123456&quot;],&lt;br&gt;[123456789, &quot;123456&quot;]&lt;br&gt;}" style="text;html=1;strokeColor=none;fillColor=none;align=left;verticalAlign=middle;spacingLeft=4;spacingRight=4;overflow=hidden;rotatable=0;points=[[0,0.5],[1,0.5]];portConstraint=eastwest;whiteSpace=wrap;" vertex="1" parent="EKBpt0zWMikfl3YGMHsi-34">
          <mxGeometry y="29" width="300" height="71" as="geometry" />
        </mxCell>
        <mxCell id="EKBpt0zWMikfl3YGMHsi-36" value="- logged_in = (111111111, 123456789)" style="text;html=1;strokeColor=none;fillColor=none;align=left;verticalAlign=middle;spacingLeft=4;spacingRight=4;overflow=hidden;rotatable=0;points=[[0,0.5],[1,0.5]];portConstraint=eastwest;whiteSpace=wrap;" vertex="1" parent="EKBpt0zWMikfl3YGMHsi-34">
          <mxGeometry y="100" width="300" height="25" as="geometry" />
        </mxCell>
        <mxCell id="EKBpt0zWMikfl3YGMHsi-37" value="- employees = {&lt;br&gt;[111111111, GuyCohen],&lt;br&gt;[123456789, RonHadad]&lt;br&gt;}" style="text;html=1;strokeColor=none;fillColor=none;align=left;verticalAlign=middle;spacingLeft=4;spacingRight=4;overflow=hidden;rotatable=0;points=[[0,0.5],[1,0.5]];portConstraint=eastwest;whiteSpace=wrap;" vertex="1" parent="EKBpt0zWMikfl3YGMHsi-34">
          <mxGeometry y="125" width="300" height="75" as="geometry" />
        </mxCell>
        <mxCell id="EKBpt0zWMikfl3YGMHsi-38" value="- employeeDAO = employeeDAO" style="text;html=1;strokeColor=none;fillColor=none;align=left;verticalAlign=middle;spacingLeft=4;spacingRight=4;overflow=hidden;rotatable=0;points=[[0,0.5],[1,0.5]];portConstraint=eastwest;whiteSpace=wrap;" vertex="1" parent="EKBpt0zWMikfl3YGMHsi-34">
          <mxGeometry y="200" width="300" height="25" as="geometry" />
        </mxCell>
        <mxCell id="EKBpt0zWMikfl3YGMHsi-39" value="shiftController: ShiftController" style="swimlane;fontStyle=1;align=center;verticalAlign=middle;childLayout=stackLayout;horizontal=1;startSize=29;horizontalStack=0;resizeParent=1;resizeParentMax=0;resizeLast=0;collapsible=0;marginBottom=0;html=1;whiteSpace=wrap;" vertex="1" parent="1">
          <mxGeometry x="690" y="220" width="300" height="129" as="geometry" />
        </mxCell>
        <mxCell id="EKBpt0zWMikfl3YGMHsi-40" value="- stores_schedules = []" style="text;html=1;strokeColor=none;fillColor=none;align=left;verticalAlign=middle;spacingLeft=4;spacingRight=4;overflow=hidden;rotatable=0;points=[[0,0.5],[1,0.5]];portConstraint=eastwest;whiteSpace=wrap;" vertex="1" parent="EKBpt0zWMikfl3YGMHsi-39">
          <mxGeometry y="29" width="300" height="25" as="geometry" />
        </mxCell>
        <mxCell id="EKBpt0zWMikfl3YGMHsi-41" value="- stores = {&quot;Be&#39;er Sheva&quot;}" style="text;html=1;strokeColor=none;fillColor=none;align=left;verticalAlign=middle;spacingLeft=4;spacingRight=4;overflow=hidden;rotatable=0;points=[[0,0.5],[1,0.5]];portConstraint=eastwest;whiteSpace=wrap;" vertex="1" parent="EKBpt0zWMikfl3YGMHsi-39">
          <mxGeometry y="54" width="300" height="25" as="geometry" />
        </mxCell>
        <mxCell id="EKBpt0zWMikfl3YGMHsi-42" value="- schedules_history = []" style="text;html=1;strokeColor=none;fillColor=none;align=left;verticalAlign=middle;spacingLeft=4;spacingRight=4;overflow=hidden;rotatable=0;points=[[0,0.5],[1,0.5]];portConstraint=eastwest;whiteSpace=wrap;" vertex="1" parent="EKBpt0zWMikfl3YGMHsi-39">
          <mxGeometry y="79" width="300" height="25" as="geometry" />
        </mxCell>
        <mxCell id="EKBpt0zWMikfl3YGMHsi-43" value="- shiftDAO = shiftDAO" style="text;html=1;strokeColor=none;fillColor=none;align=left;verticalAlign=middle;spacingLeft=4;spacingRight=4;overflow=hidden;rotatable=0;points=[[0,0.5],[1,0.5]];portConstraint=eastwest;whiteSpace=wrap;" vertex="1" parent="EKBpt0zWMikfl3YGMHsi-39">
          <mxGeometry y="104" width="300" height="25" as="geometry" />
        </mxCell>
        <mxCell id="EKBpt0zWMikfl3YGMHsi-44" value="employeeController: EmployeeController" style="swimlane;fontStyle=1;align=center;verticalAlign=middle;childLayout=stackLayout;horizontal=1;startSize=29;horizontalStack=0;resizeParent=1;resizeParentMax=0;resizeLast=0;collapsible=0;marginBottom=0;html=1;whiteSpace=wrap;" vertex="1" parent="1">
          <mxGeometry x="350" y="240" width="300" height="225" as="geometry" />
        </mxCell>
        <mxCell id="EKBpt0zWMikfl3YGMHsi-45" value="- login_info = [&lt;br&gt;{111111111, &quot;123456&quot;}&lt;br&gt;{123456789, &quot;123456&quot;}&lt;br&gt;]" style="text;html=1;strokeColor=none;fillColor=none;align=left;verticalAlign=middle;spacingLeft=4;spacingRight=4;overflow=hidden;rotatable=0;points=[[0,0.5],[1,0.5]];portConstraint=eastwest;whiteSpace=wrap;" vertex="1" parent="EKBpt0zWMikfl3YGMHsi-44">
          <mxGeometry y="29" width="300" height="71" as="geometry" />
        </mxCell>
        <mxCell id="EKBpt0zWMikfl3YGMHsi-46" value="- logged_in = {}" style="text;html=1;strokeColor=none;fillColor=none;align=left;verticalAlign=middle;spacingLeft=4;spacingRight=4;overflow=hidden;rotatable=0;points=[[0,0.5],[1,0.5]];portConstraint=eastwest;whiteSpace=wrap;" vertex="1" parent="EKBpt0zWMikfl3YGMHsi-44">
          <mxGeometry y="100" width="300" height="25" as="geometry" />
        </mxCell>
        <mxCell id="EKBpt0zWMikfl3YGMHsi-47" value="- employees = [&lt;br&gt;{111111111, GuyCohen}&lt;br&gt;{123456789, RonHadad}&lt;br&gt;]" style="text;html=1;strokeColor=none;fillColor=none;align=left;verticalAlign=middle;spacingLeft=4;spacingRight=4;overflow=hidden;rotatable=0;points=[[0,0.5],[1,0.5]];portConstraint=eastwest;whiteSpace=wrap;" vertex="1" parent="EKBpt0zWMikfl3YGMHsi-44">
          <mxGeometry y="125" width="300" height="75" as="geometry" />
        </mxCell>
        <mxCell id="EKBpt0zWMikfl3YGMHsi-48" value="- employeeDAO = employeeDAO" style="text;html=1;strokeColor=none;fillColor=none;align=left;verticalAlign=middle;spacingLeft=4;spacingRight=4;overflow=hidden;rotatable=0;points=[[0,0.5],[1,0.5]];portConstraint=eastwest;whiteSpace=wrap;" vertex="1" parent="EKBpt0zWMikfl3YGMHsi-44">
          <mxGeometry y="200" width="300" height="25" as="geometry" />
        </mxCell>
        <mxCell id="EKBpt0zWMikfl3YGMHsi-54" style="edgeStyle=orthogonalEdgeStyle;rounded=0;orthogonalLoop=1;jettySize=auto;html=1;entryX=0.5;entryY=0;entryDx=0;entryDy=0;startArrow=diamondThin;startFill=1;startSize=13;endArrow=open;endFill=0;" edge="1" parent="1" source="EKBpt0zWMikfl3YGMHsi-49" target="EKBpt0zWMikfl3YGMHsi-44">
          <mxGeometry relative="1" as="geometry" />
        </mxCell>
        <mxCell id="EKBpt0zWMikfl3YGMHsi-55" style="edgeStyle=orthogonalEdgeStyle;rounded=0;orthogonalLoop=1;jettySize=auto;html=1;entryX=0.5;entryY=0;entryDx=0;entryDy=0;startArrow=diamondThin;startFill=1;targetPerimeterSpacing=0;endSize=6;sourcePerimeterSpacing=0;startSize=13;endArrow=open;endFill=0;" edge="1" parent="1" source="EKBpt0zWMikfl3YGMHsi-49" target="EKBpt0zWMikfl3YGMHsi-39">
          <mxGeometry relative="1" as="geometry" />
        </mxCell>
        <mxCell id="EKBpt0zWMikfl3YGMHsi-49" value="facade: Facade" style="swimlane;fontStyle=1;align=center;verticalAlign=middle;childLayout=stackLayout;horizontal=1;startSize=29;horizontalStack=0;resizeParent=1;resizeParentMax=0;resizeLast=0;collapsible=0;marginBottom=0;html=1;whiteSpace=wrap;" vertex="1" parent="1">
          <mxGeometry x="530" y="10" width="300" height="79" as="geometry" />
        </mxCell>
        <mxCell id="EKBpt0zWMikfl3YGMHsi-50" value="- shiftController = shiftController" style="text;html=1;strokeColor=none;fillColor=none;align=left;verticalAlign=middle;spacingLeft=4;spacingRight=4;overflow=hidden;rotatable=0;points=[[0,0.5],[1,0.5]];portConstraint=eastwest;whiteSpace=wrap;" vertex="1" parent="EKBpt0zWMikfl3YGMHsi-49">
          <mxGeometry y="29" width="300" height="25" as="geometry" />
        </mxCell>
        <mxCell id="EKBpt0zWMikfl3YGMHsi-51" value="- employeeController = employeeController" style="text;html=1;strokeColor=none;fillColor=none;align=left;verticalAlign=middle;spacingLeft=4;spacingRight=4;overflow=hidden;rotatable=0;points=[[0,0.5],[1,0.5]];portConstraint=eastwest;whiteSpace=wrap;" vertex="1" parent="EKBpt0zWMikfl3YGMHsi-49">
          <mxGeometry y="54" width="300" height="25" as="geometry" />
        </mxCell>
        <mxCell id="EKBpt0zWMikfl3YGMHsi-57" style="edgeStyle=orthogonalEdgeStyle;rounded=0;orthogonalLoop=1;jettySize=auto;html=1;entryX=1;entryY=0.5;entryDx=0;entryDy=0;startArrow=diamondThin;startFill=1;startSize=11;endArrow=open;endFill=0;" edge="1" parent="1" source="EKBpt0zWMikfl3YGMHsi-47" target="EKBpt0zWMikfl3YGMHsi-3">
          <mxGeometry relative="1" as="geometry" />
        </mxCell>
        <mxCell id="EKBpt0zWMikfl3YGMHsi-58" style="edgeStyle=orthogonalEdgeStyle;rounded=0;orthogonalLoop=1;jettySize=auto;html=1;entryX=0;entryY=0.5;entryDx=0;entryDy=0;startArrow=diamondThin;startFill=1;endArrow=open;endFill=0;startSize=12;" edge="1" parent="1" source="EKBpt0zWMikfl3YGMHsi-48" target="EKBpt0zWMikfl3YGMHsi-6">
          <mxGeometry relative="1" as="geometry" />
        </mxCell>
        <mxCell id="EKBpt0zWMikfl3YGMHsi-62" style="edgeStyle=orthogonalEdgeStyle;rounded=0;orthogonalLoop=1;jettySize=auto;html=1;entryX=0.5;entryY=0;entryDx=0;entryDy=0;endArrow=open;endFill=0;startArrow=diamondThin;startFill=1;startSize=12;" edge="1" parent="1" source="EKBpt0zWMikfl3YGMHsi-59" target="EKBpt0zWMikfl3YGMHsi-34">
          <mxGeometry relative="1" as="geometry" />
        </mxCell>
        <mxCell id="EKBpt0zWMikfl3YGMHsi-63" style="edgeStyle=orthogonalEdgeStyle;rounded=0;orthogonalLoop=1;jettySize=auto;html=1;entryX=0.5;entryY=0;entryDx=0;entryDy=0;endArrow=open;endFill=0;" edge="1" parent="1" source="EKBpt0zWMikfl3YGMHsi-59" target="vN5kve3PeMKoZxvb_3zb-52">
          <mxGeometry relative="1" as="geometry" />
        </mxCell>
        <mxCell id="EKBpt0zWMikfl3YGMHsi-59" value="facade: Facade" style="swimlane;fontStyle=1;align=center;verticalAlign=middle;childLayout=stackLayout;horizontal=1;startSize=29;horizontalStack=0;resizeParent=1;resizeParentMax=0;resizeLast=0;collapsible=0;marginBottom=0;html=1;whiteSpace=wrap;" vertex="1" parent="1">
          <mxGeometry x="660" y="670" width="300" height="79" as="geometry" />
        </mxCell>
        <mxCell id="EKBpt0zWMikfl3YGMHsi-60" value="- shiftController = shiftController" style="text;html=1;strokeColor=none;fillColor=none;align=left;verticalAlign=middle;spacingLeft=4;spacingRight=4;overflow=hidden;rotatable=0;points=[[0,0.5],[1,0.5]];portConstraint=eastwest;whiteSpace=wrap;" vertex="1" parent="EKBpt0zWMikfl3YGMHsi-59">
          <mxGeometry y="29" width="300" height="25" as="geometry" />
        </mxCell>
        <mxCell id="EKBpt0zWMikfl3YGMHsi-61" value="- employeeController = employeeController" style="text;html=1;strokeColor=none;fillColor=none;align=left;verticalAlign=middle;spacingLeft=4;spacingRight=4;overflow=hidden;rotatable=0;points=[[0,0.5],[1,0.5]];portConstraint=eastwest;whiteSpace=wrap;" vertex="1" parent="EKBpt0zWMikfl3YGMHsi-59">
          <mxGeometry y="54" width="300" height="25" as="geometry" />
        </mxCell>
        <mxCell id="EKBpt0zWMikfl3YGMHsi-64" style="edgeStyle=orthogonalEdgeStyle;rounded=0;orthogonalLoop=1;jettySize=auto;html=1;entryX=1;entryY=0.5;entryDx=0;entryDy=0;endArrow=open;endFill=0;startArrow=diamondThin;startFill=1;startSize=12;" edge="1" parent="1" source="EKBpt0zWMikfl3YGMHsi-38" target="EKBpt0zWMikfl3YGMHsi-19">
          <mxGeometry relative="1" as="geometry" />
        </mxCell>
        <mxCell id="EKBpt0zWMikfl3YGMHsi-65" style="edgeStyle=orthogonalEdgeStyle;rounded=0;orthogonalLoop=1;jettySize=auto;html=1;entryX=0;entryY=0.5;entryDx=0;entryDy=0;endArrow=open;endFill=0;startArrow=diamondThin;startFill=1;startSize=12;" edge="1" parent="1" source="EKBpt0zWMikfl3YGMHsi-38" target="EKBpt0zWMikfl3YGMHsi-33">
          <mxGeometry relative="1" as="geometry">
            <Array as="points">
              <mxPoint x="1280" y="1173" />
              <mxPoint x="1280" y="1066" />
            </Array>
          </mxGeometry>
        </mxCell>
        <mxCell id="EKBpt0zWMikfl3YGMHsi-67" value="sun_morning_pair: ShiftPair" style="swimlane;fontStyle=1;align=center;verticalAlign=middle;childLayout=stackLayout;horizontal=1;startSize=29;horizontalStack=0;resizeParent=1;resizeParentMax=0;resizeLast=0;collapsible=0;marginBottom=0;html=1;whiteSpace=wrap;" vertex="1" parent="1">
          <mxGeometry x="1180" y="1240" width="170" height="79" as="geometry" />
        </mxCell>
        <mxCell id="EKBpt0zWMikfl3YGMHsi-68" value="- date = 2023-07-02" style="text;html=1;strokeColor=none;fillColor=none;align=left;verticalAlign=middle;spacingLeft=4;spacingRight=4;overflow=hidden;rotatable=0;points=[[0,0.5],[1,0.5]];portConstraint=eastwest;whiteSpace=wrap;" vertex="1" parent="EKBpt0zWMikfl3YGMHsi-67">
          <mxGeometry y="29" width="170" height="25" as="geometry" />
        </mxCell>
        <mxCell id="EKBpt0zWMikfl3YGMHsi-70" value="- type = MORNING" style="text;html=1;strokeColor=none;fillColor=none;align=left;verticalAlign=middle;spacingLeft=4;spacingRight=4;overflow=hidden;rotatable=0;points=[[0,0.5],[1,0.5]];portConstraint=eastwest;whiteSpace=wrap;" vertex="1" parent="EKBpt0zWMikfl3YGMHsi-67">
          <mxGeometry y="54" width="170" height="25" as="geometry" />
        </mxCell>
        <mxCell id="EKBpt0zWMikfl3YGMHsi-75" value="sun_evening_pair: ShiftPair" style="swimlane;fontStyle=1;align=center;verticalAlign=middle;childLayout=stackLayout;horizontal=1;startSize=29;horizontalStack=0;resizeParent=1;resizeParentMax=0;resizeLast=0;collapsible=0;marginBottom=0;html=1;whiteSpace=wrap;" vertex="1" parent="1">
          <mxGeometry x="1420" y="1240" width="170" height="79" as="geometry" />
        </mxCell>
        <mxCell id="EKBpt0zWMikfl3YGMHsi-76" value="- date = 2023-07-02" style="text;html=1;strokeColor=none;fillColor=none;align=left;verticalAlign=middle;spacingLeft=4;spacingRight=4;overflow=hidden;rotatable=0;points=[[0,0.5],[1,0.5]];portConstraint=eastwest;whiteSpace=wrap;" vertex="1" parent="EKBpt0zWMikfl3YGMHsi-75">
          <mxGeometry y="29" width="170" height="25" as="geometry" />
        </mxCell>
        <mxCell id="EKBpt0zWMikfl3YGMHsi-78" value="- type = EVENING" style="text;html=1;strokeColor=none;fillColor=none;align=left;verticalAlign=middle;spacingLeft=4;spacingRight=4;overflow=hidden;rotatable=0;points=[[0,0.5],[1,0.5]];portConstraint=eastwest;whiteSpace=wrap;" vertex="1" parent="EKBpt0zWMikfl3YGMHsi-75">
          <mxGeometry y="54" width="170" height="25" as="geometry" />
        </mxCell>
        <mxCell id="EKBpt0zWMikfl3YGMHsi-83" value="mon_morning_pair: ShiftPair" style="swimlane;fontStyle=1;align=center;verticalAlign=middle;childLayout=stackLayout;horizontal=1;startSize=29;horizontalStack=0;resizeParent=1;resizeParentMax=0;resizeLast=0;collapsible=0;marginBottom=0;html=1;whiteSpace=wrap;" vertex="1" parent="1">
          <mxGeometry x="1660" y="1240" width="170" height="79" as="geometry" />
        </mxCell>
        <mxCell id="EKBpt0zWMikfl3YGMHsi-84" value="- date = 2023-07-03" style="text;html=1;strokeColor=none;fillColor=none;align=left;verticalAlign=middle;spacingLeft=4;spacingRight=4;overflow=hidden;rotatable=0;points=[[0,0.5],[1,0.5]];portConstraint=eastwest;whiteSpace=wrap;" vertex="1" parent="EKBpt0zWMikfl3YGMHsi-83">
          <mxGeometry y="29" width="170" height="25" as="geometry" />
        </mxCell>
        <mxCell id="EKBpt0zWMikfl3YGMHsi-86" value="- type = MORNING" style="text;html=1;strokeColor=none;fillColor=none;align=left;verticalAlign=middle;spacingLeft=4;spacingRight=4;overflow=hidden;rotatable=0;points=[[0,0.5],[1,0.5]];portConstraint=eastwest;whiteSpace=wrap;" vertex="1" parent="EKBpt0zWMikfl3YGMHsi-83">
          <mxGeometry y="54" width="170" height="25" as="geometry" />
        </mxCell>
        <mxCell id="EKBpt0zWMikfl3YGMHsi-90" value="mon_evening_pair: ShiftPair" style="swimlane;fontStyle=1;align=center;verticalAlign=middle;childLayout=stackLayout;horizontal=1;startSize=29;horizontalStack=0;resizeParent=1;resizeParentMax=0;resizeLast=0;collapsible=0;marginBottom=0;html=1;whiteSpace=wrap;" vertex="1" parent="1">
          <mxGeometry x="1900" y="1240" width="170" height="79" as="geometry" />
        </mxCell>
        <mxCell id="EKBpt0zWMikfl3YGMHsi-91" value="- date = 2023-07-03" style="text;html=1;strokeColor=none;fillColor=none;align=left;verticalAlign=middle;spacingLeft=4;spacingRight=4;overflow=hidden;rotatable=0;points=[[0,0.5],[1,0.5]];portConstraint=eastwest;whiteSpace=wrap;" vertex="1" parent="EKBpt0zWMikfl3YGMHsi-90">
          <mxGeometry y="29" width="170" height="25" as="geometry" />
        </mxCell>
        <mxCell id="EKBpt0zWMikfl3YGMHsi-93" value="- type = EVENING" style="text;html=1;strokeColor=none;fillColor=none;align=left;verticalAlign=middle;spacingLeft=4;spacingRight=4;overflow=hidden;rotatable=0;points=[[0,0.5],[1,0.5]];portConstraint=eastwest;whiteSpace=wrap;" vertex="1" parent="EKBpt0zWMikfl3YGMHsi-90">
          <mxGeometry y="54" width="170" height="25" as="geometry" />
        </mxCell>
        <mxCell id="EKBpt0zWMikfl3YGMHsi-98" value="tue_morning_pair: ShiftPair" style="swimlane;fontStyle=1;align=center;verticalAlign=middle;childLayout=stackLayout;horizontal=1;startSize=29;horizontalStack=0;resizeParent=1;resizeParentMax=0;resizeLast=0;collapsible=0;marginBottom=0;html=1;whiteSpace=wrap;" vertex="1" parent="1">
          <mxGeometry x="1180" y="1401" width="170" height="79" as="geometry" />
        </mxCell>
        <mxCell id="EKBpt0zWMikfl3YGMHsi-99" value="- date = 2023-07-04" style="text;html=1;strokeColor=none;fillColor=none;align=left;verticalAlign=middle;spacingLeft=4;spacingRight=4;overflow=hidden;rotatable=0;points=[[0,0.5],[1,0.5]];portConstraint=eastwest;whiteSpace=wrap;" vertex="1" parent="EKBpt0zWMikfl3YGMHsi-98">
          <mxGeometry y="29" width="170" height="25" as="geometry" />
        </mxCell>
        <mxCell id="EKBpt0zWMikfl3YGMHsi-101" value="- type = MORNING" style="text;html=1;strokeColor=none;fillColor=none;align=left;verticalAlign=middle;spacingLeft=4;spacingRight=4;overflow=hidden;rotatable=0;points=[[0,0.5],[1,0.5]];portConstraint=eastwest;whiteSpace=wrap;" vertex="1" parent="EKBpt0zWMikfl3YGMHsi-98">
          <mxGeometry y="54" width="170" height="25" as="geometry" />
        </mxCell>
        <mxCell id="EKBpt0zWMikfl3YGMHsi-106" value="tue_evening_pair: ShiftPair" style="swimlane;fontStyle=1;align=center;verticalAlign=middle;childLayout=stackLayout;horizontal=1;startSize=29;horizontalStack=0;resizeParent=1;resizeParentMax=0;resizeLast=0;collapsible=0;marginBottom=0;html=1;whiteSpace=wrap;" vertex="1" parent="1">
          <mxGeometry x="1420" y="1400" width="170" height="79" as="geometry" />
        </mxCell>
        <mxCell id="EKBpt0zWMikfl3YGMHsi-107" value="- date = 2023-07-04" style="text;html=1;strokeColor=none;fillColor=none;align=left;verticalAlign=middle;spacingLeft=4;spacingRight=4;overflow=hidden;rotatable=0;points=[[0,0.5],[1,0.5]];portConstraint=eastwest;whiteSpace=wrap;" vertex="1" parent="EKBpt0zWMikfl3YGMHsi-106">
          <mxGeometry y="29" width="170" height="25" as="geometry" />
        </mxCell>
        <mxCell id="EKBpt0zWMikfl3YGMHsi-109" value="- type = EVENING" style="text;html=1;strokeColor=none;fillColor=none;align=left;verticalAlign=middle;spacingLeft=4;spacingRight=4;overflow=hidden;rotatable=0;points=[[0,0.5],[1,0.5]];portConstraint=eastwest;whiteSpace=wrap;" vertex="1" parent="EKBpt0zWMikfl3YGMHsi-106">
          <mxGeometry y="54" width="170" height="25" as="geometry" />
        </mxCell>
        <mxCell id="EKBpt0zWMikfl3YGMHsi-114" value="wed_morning_pair: ShiftPair" style="swimlane;fontStyle=1;align=center;verticalAlign=middle;childLayout=stackLayout;horizontal=1;startSize=29;horizontalStack=0;resizeParent=1;resizeParentMax=0;resizeLast=0;collapsible=0;marginBottom=0;html=1;whiteSpace=wrap;" vertex="1" parent="1">
          <mxGeometry x="1660" y="1400" width="170" height="79" as="geometry" />
        </mxCell>
        <mxCell id="EKBpt0zWMikfl3YGMHsi-115" value="- date = 2023-07-05" style="text;html=1;strokeColor=none;fillColor=none;align=left;verticalAlign=middle;spacingLeft=4;spacingRight=4;overflow=hidden;rotatable=0;points=[[0,0.5],[1,0.5]];portConstraint=eastwest;whiteSpace=wrap;" vertex="1" parent="EKBpt0zWMikfl3YGMHsi-114">
          <mxGeometry y="29" width="170" height="25" as="geometry" />
        </mxCell>
        <mxCell id="EKBpt0zWMikfl3YGMHsi-117" value="- type = MORNING" style="text;html=1;strokeColor=none;fillColor=none;align=left;verticalAlign=middle;spacingLeft=4;spacingRight=4;overflow=hidden;rotatable=0;points=[[0,0.5],[1,0.5]];portConstraint=eastwest;whiteSpace=wrap;" vertex="1" parent="EKBpt0zWMikfl3YGMHsi-114">
          <mxGeometry y="54" width="170" height="25" as="geometry" />
        </mxCell>
        <mxCell id="EKBpt0zWMikfl3YGMHsi-122" value="wed_evening_pair: ShiftPair" style="swimlane;fontStyle=1;align=center;verticalAlign=middle;childLayout=stackLayout;horizontal=1;startSize=29;horizontalStack=0;resizeParent=1;resizeParentMax=0;resizeLast=0;collapsible=0;marginBottom=0;html=1;whiteSpace=wrap;" vertex="1" parent="1">
          <mxGeometry x="1900" y="1401" width="170" height="79" as="geometry" />
        </mxCell>
        <mxCell id="EKBpt0zWMikfl3YGMHsi-123" value="- date = 2023-07-05" style="text;html=1;strokeColor=none;fillColor=none;align=left;verticalAlign=middle;spacingLeft=4;spacingRight=4;overflow=hidden;rotatable=0;points=[[0,0.5],[1,0.5]];portConstraint=eastwest;whiteSpace=wrap;" vertex="1" parent="EKBpt0zWMikfl3YGMHsi-122">
          <mxGeometry y="29" width="170" height="25" as="geometry" />
        </mxCell>
        <mxCell id="EKBpt0zWMikfl3YGMHsi-125" value="- type = EVENING" style="text;html=1;strokeColor=none;fillColor=none;align=left;verticalAlign=middle;spacingLeft=4;spacingRight=4;overflow=hidden;rotatable=0;points=[[0,0.5],[1,0.5]];portConstraint=eastwest;whiteSpace=wrap;" vertex="1" parent="EKBpt0zWMikfl3YGMHsi-122">
          <mxGeometry y="54" width="170" height="25" as="geometry" />
        </mxCell>
        <mxCell id="EKBpt0zWMikfl3YGMHsi-130" value="thu_morning_pair: ShiftPair" style="swimlane;fontStyle=1;align=center;verticalAlign=middle;childLayout=stackLayout;horizontal=1;startSize=29;horizontalStack=0;resizeParent=1;resizeParentMax=0;resizeLast=0;collapsible=0;marginBottom=0;html=1;whiteSpace=wrap;" vertex="1" parent="1">
          <mxGeometry x="1180" y="1561" width="170" height="79" as="geometry" />
        </mxCell>
        <mxCell id="EKBpt0zWMikfl3YGMHsi-131" value="- date = 2023-07-06" style="text;html=1;strokeColor=none;fillColor=none;align=left;verticalAlign=middle;spacingLeft=4;spacingRight=4;overflow=hidden;rotatable=0;points=[[0,0.5],[1,0.5]];portConstraint=eastwest;whiteSpace=wrap;" vertex="1" parent="EKBpt0zWMikfl3YGMHsi-130">
          <mxGeometry y="29" width="170" height="25" as="geometry" />
        </mxCell>
        <mxCell id="EKBpt0zWMikfl3YGMHsi-133" value="- type = MORNING" style="text;html=1;strokeColor=none;fillColor=none;align=left;verticalAlign=middle;spacingLeft=4;spacingRight=4;overflow=hidden;rotatable=0;points=[[0,0.5],[1,0.5]];portConstraint=eastwest;whiteSpace=wrap;" vertex="1" parent="EKBpt0zWMikfl3YGMHsi-130">
          <mxGeometry y="54" width="170" height="25" as="geometry" />
        </mxCell>
        <mxCell id="EKBpt0zWMikfl3YGMHsi-138" value="thu_evening_pair: ShiftPair" style="swimlane;fontStyle=1;align=center;verticalAlign=middle;childLayout=stackLayout;horizontal=1;startSize=29;horizontalStack=0;resizeParent=1;resizeParentMax=0;resizeLast=0;collapsible=0;marginBottom=0;html=1;whiteSpace=wrap;" vertex="1" parent="1">
          <mxGeometry x="1420" y="1561" width="170" height="79" as="geometry" />
        </mxCell>
        <mxCell id="EKBpt0zWMikfl3YGMHsi-139" value="- date = 2023-07-06" style="text;html=1;strokeColor=none;fillColor=none;align=left;verticalAlign=middle;spacingLeft=4;spacingRight=4;overflow=hidden;rotatable=0;points=[[0,0.5],[1,0.5]];portConstraint=eastwest;whiteSpace=wrap;" vertex="1" parent="EKBpt0zWMikfl3YGMHsi-138">
          <mxGeometry y="29" width="170" height="25" as="geometry" />
        </mxCell>
        <mxCell id="EKBpt0zWMikfl3YGMHsi-141" value="- type = EVENING" style="text;html=1;strokeColor=none;fillColor=none;align=left;verticalAlign=middle;spacingLeft=4;spacingRight=4;overflow=hidden;rotatable=0;points=[[0,0.5],[1,0.5]];portConstraint=eastwest;whiteSpace=wrap;" vertex="1" parent="EKBpt0zWMikfl3YGMHsi-138">
          <mxGeometry y="54" width="170" height="25" as="geometry" />
        </mxCell>
        <mxCell id="EKBpt0zWMikfl3YGMHsi-146" value="fri_morning_pair: ShiftPair" style="swimlane;fontStyle=1;align=center;verticalAlign=middle;childLayout=stackLayout;horizontal=1;startSize=29;horizontalStack=0;resizeParent=1;resizeParentMax=0;resizeLast=0;collapsible=0;marginBottom=0;html=1;whiteSpace=wrap;" vertex="1" parent="1">
          <mxGeometry x="1660" y="1561" width="170" height="79" as="geometry" />
        </mxCell>
        <mxCell id="EKBpt0zWMikfl3YGMHsi-147" value="- date = 2023-07-07" style="text;html=1;strokeColor=none;fillColor=none;align=left;verticalAlign=middle;spacingLeft=4;spacingRight=4;overflow=hidden;rotatable=0;points=[[0,0.5],[1,0.5]];portConstraint=eastwest;whiteSpace=wrap;" vertex="1" parent="EKBpt0zWMikfl3YGMHsi-146">
          <mxGeometry y="29" width="170" height="25" as="geometry" />
        </mxCell>
        <mxCell id="EKBpt0zWMikfl3YGMHsi-149" value="- type = MORNING" style="text;html=1;strokeColor=none;fillColor=none;align=left;verticalAlign=middle;spacingLeft=4;spacingRight=4;overflow=hidden;rotatable=0;points=[[0,0.5],[1,0.5]];portConstraint=eastwest;whiteSpace=wrap;" vertex="1" parent="EKBpt0zWMikfl3YGMHsi-146">
          <mxGeometry y="54" width="170" height="25" as="geometry" />
        </mxCell>
        <mxCell id="EKBpt0zWMikfl3YGMHsi-154" value="fri_evening_pair: ShiftPair" style="swimlane;fontStyle=1;align=center;verticalAlign=middle;childLayout=stackLayout;horizontal=1;startSize=29;horizontalStack=0;resizeParent=1;resizeParentMax=0;resizeLast=0;collapsible=0;marginBottom=0;html=1;whiteSpace=wrap;" vertex="1" parent="1">
          <mxGeometry x="1900" y="1561" width="170" height="79" as="geometry" />
        </mxCell>
        <mxCell id="EKBpt0zWMikfl3YGMHsi-155" value="- date = 2023-07-07" style="text;html=1;strokeColor=none;fillColor=none;align=left;verticalAlign=middle;spacingLeft=4;spacingRight=4;overflow=hidden;rotatable=0;points=[[0,0.5],[1,0.5]];portConstraint=eastwest;whiteSpace=wrap;" vertex="1" parent="EKBpt0zWMikfl3YGMHsi-154">
          <mxGeometry y="29" width="170" height="25" as="geometry" />
        </mxCell>
        <mxCell id="EKBpt0zWMikfl3YGMHsi-157" value="- type = EVENING" style="text;html=1;strokeColor=none;fillColor=none;align=left;verticalAlign=middle;spacingLeft=4;spacingRight=4;overflow=hidden;rotatable=0;points=[[0,0.5],[1,0.5]];portConstraint=eastwest;whiteSpace=wrap;" vertex="1" parent="EKBpt0zWMikfl3YGMHsi-154">
          <mxGeometry y="54" width="170" height="25" as="geometry" />
        </mxCell>
        <mxCell id="EKBpt0zWMikfl3YGMHsi-162" value="sat_morning_pair: ShiftPair" style="swimlane;fontStyle=1;align=center;verticalAlign=middle;childLayout=stackLayout;horizontal=1;startSize=29;horizontalStack=0;resizeParent=1;resizeParentMax=0;resizeLast=0;collapsible=0;marginBottom=0;html=1;whiteSpace=wrap;" vertex="1" parent="1">
          <mxGeometry x="1420" y="1721" width="170" height="79" as="geometry" />
        </mxCell>
        <mxCell id="EKBpt0zWMikfl3YGMHsi-163" value="- date = 2023-07-08" style="text;html=1;strokeColor=none;fillColor=none;align=left;verticalAlign=middle;spacingLeft=4;spacingRight=4;overflow=hidden;rotatable=0;points=[[0,0.5],[1,0.5]];portConstraint=eastwest;whiteSpace=wrap;" vertex="1" parent="EKBpt0zWMikfl3YGMHsi-162">
          <mxGeometry y="29" width="170" height="25" as="geometry" />
        </mxCell>
        <mxCell id="EKBpt0zWMikfl3YGMHsi-165" value="- type = MORNING" style="text;html=1;strokeColor=none;fillColor=none;align=left;verticalAlign=middle;spacingLeft=4;spacingRight=4;overflow=hidden;rotatable=0;points=[[0,0.5],[1,0.5]];portConstraint=eastwest;whiteSpace=wrap;" vertex="1" parent="EKBpt0zWMikfl3YGMHsi-162">
          <mxGeometry y="54" width="170" height="25" as="geometry" />
        </mxCell>
        <mxCell id="EKBpt0zWMikfl3YGMHsi-170" value="sat_evening_pair: ShiftPair" style="swimlane;fontStyle=1;align=center;verticalAlign=middle;childLayout=stackLayout;horizontal=1;startSize=29;horizontalStack=0;resizeParent=1;resizeParentMax=0;resizeLast=0;collapsible=0;marginBottom=0;html=1;whiteSpace=wrap;" vertex="1" parent="1">
          <mxGeometry x="1660" y="1721" width="170" height="79" as="geometry" />
        </mxCell>
        <mxCell id="EKBpt0zWMikfl3YGMHsi-171" value="- date = 2023-0-08" style="text;html=1;strokeColor=none;fillColor=none;align=left;verticalAlign=middle;spacingLeft=4;spacingRight=4;overflow=hidden;rotatable=0;points=[[0,0.5],[1,0.5]];portConstraint=eastwest;whiteSpace=wrap;" vertex="1" parent="EKBpt0zWMikfl3YGMHsi-170">
          <mxGeometry y="29" width="170" height="25" as="geometry" />
        </mxCell>
        <mxCell id="EKBpt0zWMikfl3YGMHsi-173" value="- type = EVENING" style="text;html=1;strokeColor=none;fillColor=none;align=left;verticalAlign=middle;spacingLeft=4;spacingRight=4;overflow=hidden;rotatable=0;points=[[0,0.5],[1,0.5]];portConstraint=eastwest;whiteSpace=wrap;" vertex="1" parent="EKBpt0zWMikfl3YGMHsi-170">
          <mxGeometry y="54" width="170" height="25" as="geometry" />
        </mxCell>
        <mxCell id="EKBpt0zWMikfl3YGMHsi-181" style="edgeStyle=orthogonalEdgeStyle;rounded=0;orthogonalLoop=1;jettySize=auto;html=1;entryX=0.5;entryY=0;entryDx=0;entryDy=0;endArrow=open;endFill=0;" edge="1" parent="1" source="vN5kve3PeMKoZxvb_3zb-68" target="EKBpt0zWMikfl3YGMHsi-67">
          <mxGeometry relative="1" as="geometry">
            <Array as="points">
              <mxPoint x="1120" y="1271" />
              <mxPoint x="1120" y="1220" />
              <mxPoint x="1265" y="1220" />
            </Array>
          </mxGeometry>
        </mxCell>
        <mxCell id="EKBpt0zWMikfl3YGMHsi-182" style="edgeStyle=orthogonalEdgeStyle;rounded=0;orthogonalLoop=1;jettySize=auto;html=1;entryX=0.5;entryY=0;entryDx=0;entryDy=0;endArrow=open;endFill=0;" edge="1" parent="1" source="vN5kve3PeMKoZxvb_3zb-68" target="EKBpt0zWMikfl3YGMHsi-75">
          <mxGeometry relative="1" as="geometry">
            <Array as="points">
              <mxPoint x="1120" y="1271" />
              <mxPoint x="1120" y="1220" />
              <mxPoint x="1505" y="1220" />
            </Array>
          </mxGeometry>
        </mxCell>
        <mxCell id="EKBpt0zWMikfl3YGMHsi-183" style="edgeStyle=orthogonalEdgeStyle;rounded=0;orthogonalLoop=1;jettySize=auto;html=1;entryX=0.5;entryY=0;entryDx=0;entryDy=0;endArrow=open;endFill=0;" edge="1" parent="1" source="vN5kve3PeMKoZxvb_3zb-68" target="EKBpt0zWMikfl3YGMHsi-83">
          <mxGeometry relative="1" as="geometry">
            <Array as="points">
              <mxPoint x="1120" y="1271" />
              <mxPoint x="1120" y="1220" />
              <mxPoint x="1745" y="1220" />
            </Array>
          </mxGeometry>
        </mxCell>
        <mxCell id="EKBpt0zWMikfl3YGMHsi-184" style="edgeStyle=orthogonalEdgeStyle;rounded=0;orthogonalLoop=1;jettySize=auto;html=1;entryX=0.5;entryY=0;entryDx=0;entryDy=0;startArrow=diamondThin;startFill=1;endSize=6;startSize=15;endArrow=open;endFill=0;" edge="1" parent="1" source="vN5kve3PeMKoZxvb_3zb-68" target="EKBpt0zWMikfl3YGMHsi-90">
          <mxGeometry relative="1" as="geometry">
            <Array as="points">
              <mxPoint x="1120" y="1271" />
              <mxPoint x="1120" y="1220" />
              <mxPoint x="1985" y="1220" />
            </Array>
          </mxGeometry>
        </mxCell>
        <mxCell id="EKBpt0zWMikfl3YGMHsi-185" style="edgeStyle=orthogonalEdgeStyle;rounded=0;orthogonalLoop=1;jettySize=auto;html=1;entryX=0.5;entryY=0;entryDx=0;entryDy=0;endArrow=open;endFill=0;" edge="1" parent="1" source="vN5kve3PeMKoZxvb_3zb-64" target="EKBpt0zWMikfl3YGMHsi-98">
          <mxGeometry relative="1" as="geometry">
            <Array as="points">
              <mxPoint x="1130" y="1407" />
              <mxPoint x="1130" y="1381" />
              <mxPoint x="1265" y="1381" />
            </Array>
          </mxGeometry>
        </mxCell>
        <mxCell id="EKBpt0zWMikfl3YGMHsi-186" style="edgeStyle=orthogonalEdgeStyle;rounded=0;orthogonalLoop=1;jettySize=auto;html=1;entryX=0.5;entryY=0;entryDx=0;entryDy=0;exitX=1;exitY=0.5;exitDx=0;exitDy=0;endArrow=open;endFill=0;" edge="1" parent="1" source="vN5kve3PeMKoZxvb_3zb-64" target="EKBpt0zWMikfl3YGMHsi-106">
          <mxGeometry relative="1" as="geometry">
            <Array as="points">
              <mxPoint x="1130" y="1407" />
              <mxPoint x="1130" y="1380" />
              <mxPoint x="1505" y="1380" />
            </Array>
          </mxGeometry>
        </mxCell>
        <mxCell id="EKBpt0zWMikfl3YGMHsi-187" style="edgeStyle=orthogonalEdgeStyle;rounded=0;orthogonalLoop=1;jettySize=auto;html=1;entryX=0.5;entryY=0;entryDx=0;entryDy=0;exitX=1;exitY=0.5;exitDx=0;exitDy=0;endArrow=open;endFill=0;" edge="1" parent="1" source="vN5kve3PeMKoZxvb_3zb-64" target="EKBpt0zWMikfl3YGMHsi-114">
          <mxGeometry relative="1" as="geometry">
            <Array as="points">
              <mxPoint x="1130" y="1407" />
              <mxPoint x="1130" y="1380" />
              <mxPoint x="1745" y="1380" />
            </Array>
          </mxGeometry>
        </mxCell>
        <mxCell id="EKBpt0zWMikfl3YGMHsi-188" style="edgeStyle=orthogonalEdgeStyle;rounded=0;orthogonalLoop=1;jettySize=auto;html=1;entryX=0.5;entryY=0;entryDx=0;entryDy=0;startArrow=diamondThin;startFill=1;startSize=15;endArrow=open;endFill=0;" edge="1" parent="1" target="EKBpt0zWMikfl3YGMHsi-122">
          <mxGeometry relative="1" as="geometry">
            <mxPoint x="1070" y="1407" as="sourcePoint" />
            <Array as="points">
              <mxPoint x="1130" y="1407" />
              <mxPoint x="1130" y="1381" />
              <mxPoint x="1985" y="1381" />
            </Array>
          </mxGeometry>
        </mxCell>
        <mxCell id="EKBpt0zWMikfl3YGMHsi-189" style="edgeStyle=orthogonalEdgeStyle;rounded=0;orthogonalLoop=1;jettySize=auto;html=1;entryX=0.5;entryY=0;entryDx=0;entryDy=0;endArrow=open;endFill=0;" edge="1" parent="1" source="EKBpt0zWMikfl3YGMHsi-178" target="EKBpt0zWMikfl3YGMHsi-130">
          <mxGeometry relative="1" as="geometry" />
        </mxCell>
        <mxCell id="EKBpt0zWMikfl3YGMHsi-190" style="edgeStyle=orthogonalEdgeStyle;rounded=0;orthogonalLoop=1;jettySize=auto;html=1;entryX=0.5;entryY=0;entryDx=0;entryDy=0;endArrow=open;endFill=0;" edge="1" parent="1" source="EKBpt0zWMikfl3YGMHsi-178" target="EKBpt0zWMikfl3YGMHsi-138">
          <mxGeometry relative="1" as="geometry" />
        </mxCell>
        <mxCell id="EKBpt0zWMikfl3YGMHsi-191" style="edgeStyle=orthogonalEdgeStyle;rounded=0;orthogonalLoop=1;jettySize=auto;html=1;entryX=0.5;entryY=0;entryDx=0;entryDy=0;endArrow=open;endFill=0;" edge="1" parent="1" source="EKBpt0zWMikfl3YGMHsi-178" target="EKBpt0zWMikfl3YGMHsi-146">
          <mxGeometry relative="1" as="geometry" />
        </mxCell>
        <mxCell id="EKBpt0zWMikfl3YGMHsi-192" style="edgeStyle=orthogonalEdgeStyle;rounded=0;orthogonalLoop=1;jettySize=auto;html=1;entryX=0.5;entryY=0;entryDx=0;entryDy=0;startArrow=diamondThin;startFill=1;startSize=14;endArrow=open;endFill=0;" edge="1" parent="1" source="EKBpt0zWMikfl3YGMHsi-178" target="EKBpt0zWMikfl3YGMHsi-154">
          <mxGeometry relative="1" as="geometry" />
        </mxCell>
        <mxCell id="EKBpt0zWMikfl3YGMHsi-193" style="edgeStyle=orthogonalEdgeStyle;rounded=0;orthogonalLoop=1;jettySize=auto;html=1;entryX=0.5;entryY=0;entryDx=0;entryDy=0;exitX=1;exitY=0.5;exitDx=0;exitDy=0;endArrow=open;endFill=0;" edge="1" parent="1" source="EKBpt0zWMikfl3YGMHsi-178" target="EKBpt0zWMikfl3YGMHsi-162">
          <mxGeometry relative="1" as="geometry">
            <Array as="points">
              <mxPoint x="1090" y="1543" />
              <mxPoint x="1090" y="1700" />
              <mxPoint x="1505" y="1700" />
            </Array>
          </mxGeometry>
        </mxCell>
        <mxCell id="EKBpt0zWMikfl3YGMHsi-194" style="edgeStyle=orthogonalEdgeStyle;rounded=0;orthogonalLoop=1;jettySize=auto;html=1;entryX=0.5;entryY=0;entryDx=0;entryDy=0;exitX=1;exitY=0.5;exitDx=0;exitDy=0;endArrow=open;endFill=0;" edge="1" parent="1" source="EKBpt0zWMikfl3YGMHsi-178" target="EKBpt0zWMikfl3YGMHsi-170">
          <mxGeometry relative="1" as="geometry">
            <Array as="points">
              <mxPoint x="1090" y="1543" />
              <mxPoint x="1090" y="1700" />
              <mxPoint x="1745" y="1700" />
            </Array>
          </mxGeometry>
        </mxCell>
        <mxCell id="EKBpt0zWMikfl3YGMHsi-326" style="edgeStyle=orthogonalEdgeStyle;rounded=0;orthogonalLoop=1;jettySize=auto;html=1;entryX=0.75;entryY=0;entryDx=0;entryDy=0;dashed=1;endArrow=open;endFill=0;" edge="1" parent="1" source="vN5kve3PeMKoZxvb_3zb-58" target="vN5kve3PeMKoZxvb_3zb-63">
          <mxGeometry relative="1" as="geometry" />
        </mxCell>
        <mxCell id="EKBpt0zWMikfl3YGMHsi-329" value="&amp;lt;&amp;lt;create&amp;gt;&amp;gt;" style="edgeLabel;html=1;align=center;verticalAlign=middle;resizable=0;points=[];" vertex="1" connectable="0" parent="EKBpt0zWMikfl3YGMHsi-326">
          <mxGeometry x="0.4132" relative="1" as="geometry">
            <mxPoint as="offset" />
          </mxGeometry>
        </mxCell>
      </root>
    </mxGraphModel>
  </diagram>
</mxfile>
